<svg width="29" height="25" viewBox="0 0 29 25" fill="none" xmlns="http://www.w3.org/2000/svg">
<g clip-path="url(#clip0_63_2367)">
<path d="M9.33894 0.033195C9.11381 0.0109429 8.88767 -0.000135868 8.6614 1.25738e-06C6.26967 1.25738e-06 4.22816 1.21003 2.53688 3.6301C0.8456 6.05016 -2.69886e-05 8.97176 6.46026e-10 12.3949C6.46026e-10 15.8181 0.845627 18.7397 2.53688 21.1597C4.22813 23.5798 6.26964 24.79 8.6614 24.7905C8.88767 24.7906 9.11381 24.7795 9.33894 24.7573C7.23693 24.5476 5.4213 23.3484 3.89204 21.1599C2.20078 18.7398 1.35516 15.8182 1.35516 12.3951C1.35516 8.97189 2.20074 6.05024 3.89191 3.6301C5.42123 1.44182 7.23691 0.242854 9.33894 0.033195Z" fill="#932523"/>
<path d="M16.1413 3.63009C14.45 1.21001 12.4085 -2.51988e-05 10.0168 1.23987e-06C9.79054 -0.000134921 9.5644 0.0109438 9.33925 0.0331949C7.23725 0.242827 5.42161 1.44182 3.89235 3.63017C2.2011 6.05055 1.35547 8.97216 1.35547 12.395C1.35547 15.8178 2.20106 18.7394 3.89223 21.1597C5.42147 23.3483 7.2371 24.5474 9.33913 24.7571C9.56427 24.7793 9.79042 24.7904 10.0167 24.7903C12.4085 24.7903 14.45 23.5801 16.1412 21.1597C17.8324 18.7393 18.678 15.8177 18.6781 12.3949C18.6781 8.97208 17.8324 6.05047 16.1412 3.63009H16.1413ZM10.0153 1.19081C12.2739 1.19081 14.2016 2.28468 15.7986 4.47243C17.3955 6.66018 18.194 9.301 18.194 12.3949C18.194 15.4888 17.3955 18.1295 15.7985 20.317C14.2016 22.5046 12.2738 23.5984 10.0153 23.5985C7.75712 23.5985 5.82954 22.5046 4.23262 20.3169C2.63569 18.1291 1.83723 15.4885 1.83723 12.3949C1.83723 9.30068 2.63569 6.65986 4.23262 4.47243C5.82954 2.285 7.75712 1.19113 10.0153 1.19081ZM14.1136 6.91953C13.0923 5.40753 11.8595 4.65154 10.4154 4.65156C8.97125 4.65159 7.73836 5.40758 6.71671 6.91953C5.69535 8.4315 5.18468 10.2566 5.18468 12.3949C5.18468 14.5332 5.69535 16.3585 6.71671 17.8708C7.73803 19.3828 8.97093 20.1387 10.4154 20.1386C11.8599 20.1384 13.0926 19.3824 14.1136 17.8706C15.1349 16.3587 15.6456 14.5334 15.6456 12.3947C15.6456 10.2561 15.1349 8.43105 14.1136 6.91953ZM10.7342 7.13181C11.6387 7.13181 12.4105 7.64573 13.0499 8.67356C13.6893 9.70139 14.0091 10.9418 14.0094 12.3949C14.0094 13.8483 13.6896 15.0887 13.0499 16.1163C12.4103 17.1438 11.6384 17.6575 10.7342 17.6575C9.82951 17.6575 9.05746 17.1438 8.41808 16.1163C7.77871 15.0887 7.45888 13.8483 7.45861 12.3949C7.45861 10.9415 7.77844 9.70107 8.41808 8.67356C9.05773 7.64605 9.82978 7.13213 10.7342 7.13181ZM12.1536 10.5257C11.7947 10.0097 11.3612 9.75169 10.8533 9.75166C10.3454 9.75163 9.91176 10.0096 9.55248 10.5257C9.19352 11.0417 9.01404 11.6646 9.01404 12.3944C9.01404 13.1242 9.19352 13.7471 9.55248 14.2632C9.9119 14.7792 10.3455 15.0372 10.8533 15.0372C11.3611 15.0372 11.7946 14.7792 12.1536 14.2632C12.513 13.7471 12.6927 13.1242 12.6927 12.3944C12.6928 11.6646 12.5131 11.0417 12.1536 10.5257Z" fill="#AF3233"/>
<path d="M15.7992 4.47254C14.2023 2.28479 12.2746 1.19092 10.016 1.19092C7.75743 1.19092 5.82986 2.28479 4.23328 4.47254C2.63635 6.65999 1.83789 9.30082 1.83789 12.395C1.83789 15.4892 2.63635 18.1299 4.23328 20.3171C5.83021 22.5049 7.75778 23.5987 10.016 23.5988C12.2742 23.5988 14.2019 22.5049 15.7992 20.3171C17.3961 18.1297 18.1946 15.4891 18.1946 12.3952C18.1946 9.30127 17.3961 6.66039 15.7992 4.47254ZM10.2168 2.11186C12.1349 2.11186 13.772 3.11577 15.1281 5.1236C16.4843 7.13143 17.1625 9.55524 17.1628 12.395C17.1628 15.2348 16.4846 17.6586 15.1281 19.6664C13.7717 21.6742 12.1346 22.6781 10.2168 22.6781C8.29867 22.6781 6.66154 21.6742 5.30541 19.6664C3.94929 17.6586 3.27106 15.2348 3.27074 12.395C3.27074 9.55524 3.94896 7.13143 5.30541 5.1236C6.66187 3.11577 8.29899 2.11186 10.2168 2.11186Z" fill="#AB2F30"/>
<path d="M15.1269 5.12356C13.7708 3.11576 12.1337 2.11184 10.2156 2.11182C8.2975 2.11179 6.66037 3.1157 5.30421 5.12356C3.94776 7.13142 3.26953 9.55522 3.26953 12.395C3.26953 15.2347 3.94776 17.6585 5.30421 19.6664C6.66034 21.6742 8.29747 22.6781 10.2156 22.6781C12.1337 22.6781 13.7708 21.6742 15.1269 19.6664C16.4834 17.6585 17.1616 15.2347 17.1616 12.395C17.1616 9.55519 16.4834 7.13139 15.1269 5.12356ZM10.4149 4.65163C11.859 4.65163 13.0917 5.40762 14.1131 6.91959C15.1344 8.43157 15.6451 10.2567 15.6451 12.395C15.6451 14.5336 15.1344 16.3589 14.1131 17.8708C13.0917 19.3828 11.859 20.1387 10.4149 20.1386C8.97039 20.1386 7.7375 19.3826 6.71617 17.8707C5.69484 16.3587 5.18416 14.5335 5.18414 12.395C5.18414 10.2567 5.69481 8.43157 6.71617 6.91959C7.73752 5.40762 8.97042 4.65163 10.4149 4.65163ZM13.0494 8.67351C12.41 7.64565 11.6381 7.13174 10.7337 7.13176C9.82927 7.13179 9.05722 7.6457 8.41754 8.67351C7.7779 9.70099 7.45808 10.9414 7.45808 12.3949C7.45808 13.8483 7.7779 15.0887 8.41754 16.1162C9.05692 17.1437 9.82898 17.6575 10.7337 17.6575C11.6384 17.6575 12.4103 17.1437 13.0494 16.1162C13.689 15.0887 14.0089 13.8482 14.0089 12.3949C14.0089 10.9415 13.689 9.70102 13.0494 8.67351ZM10.8528 9.75161C11.3607 9.75161 11.7941 10.0096 12.1531 10.5256C12.5121 11.0416 12.6918 11.6645 12.6922 12.3944C12.6922 13.1241 12.5125 13.747 12.1531 14.2631C11.7937 14.7792 11.3603 15.0372 10.8528 15.0371C10.3449 15.0371 9.91133 14.7791 9.55194 14.2631C9.19256 13.7471 9.01308 13.1242 9.01351 12.3944C9.01351 11.6647 9.19299 11.0417 9.55194 10.5256C9.9109 10.0095 10.3445 9.75151 10.8528 9.75173V9.75161Z" fill="white"/>
<path d="M10.9314 12.0294C10.874 12.0337 10.8273 12.0729 10.7914 12.147C10.7562 12.2213 10.7424 12.3088 10.7501 12.4096C10.7578 12.5105 10.7847 12.5952 10.8308 12.6639C10.8773 12.7323 10.9293 12.7643 10.9867 12.76C11.0442 12.7558 11.0907 12.7166 11.1262 12.6424C11.1621 12.5683 11.1762 12.4806 11.1686 12.3794C11.1609 12.2782 11.1337 12.1935 11.0869 12.1255C11.0411 12.0573 10.9892 12.0252 10.9314 12.0294Z" fill="#791E1F"/>
<path d="M14.2602 12.4691C14.1437 12.2874 14.106 12.0726 14.1471 11.8249C14.162 11.7805 14.1795 11.737 14.1995 11.6946L10.9427 12.1241C10.852 12.3919 10.8798 12.5694 11.0258 12.6565L14.2602 12.4691ZM14.0072 11.8322C13.9323 11.9697 13.9256 12.0772 13.9872 12.1548L11.1629 12.3798C11.1405 12.2974 11.15 12.2336 11.1912 12.1885L14.0072 11.8322Z" fill="#CDCCCC"/>
<path d="M13.9865 12.1549C13.9249 12.0774 13.9315 11.9699 14.0064 11.8323L11.1905 12.1885C11.1493 12.2336 11.1398 12.2974 11.1622 12.3798L13.9865 12.1549Z" fill="#D8D7D6"/>
<path d="M28.3224 11.3999C28.2765 11.4161 28.2282 11.4322 28.1774 11.4482C28.0164 11.4985 27.852 11.5479 27.6842 11.5966C27.6395 12.0451 27.6391 12.4837 27.6832 12.9124C28.0702 12.9695 28.4839 12.9112 28.9242 12.7376C28.5769 12.4043 28.3762 11.9584 28.3224 11.3999Z" fill="#2B79A2"/>
<path d="M27.6845 11.5964C27.6936 11.5063 27.7044 11.4157 27.7169 11.3246C25.934 11.3521 24.1708 11.6321 22.4274 12.1645C22.4591 12.3366 22.5036 12.5063 22.5604 12.6721C23.1491 14.3693 24.9657 14.927 28.0104 14.3451C27.8437 13.8819 27.734 13.4009 27.6835 12.9122C27.6395 12.4836 27.6398 12.045 27.6845 11.5965V11.5964ZM27.6467 11.4207C27.2624 12.2548 27.2029 13.13 27.4683 14.0465C24.7067 14.5832 23.1624 14.0102 22.8355 12.3276C24.2032 11.801 25.807 11.4988 27.6467 11.4207ZM27.9336 10.4525C27.9336 10.4519 27.9334 10.4515 27.9331 10.451C26.2738 9.89741 24.4035 9.80435 22.3223 10.1718C22.3218 10.1732 22.3211 10.1746 22.3203 10.1758C24.6183 10.202 26.4894 10.2942 27.9336 10.4524V10.4525Z" fill="#338DBC"/>
<path d="M27.4677 14.0465C27.2023 13.13 27.2618 12.2548 27.6461 11.4208C25.8064 11.4988 24.2026 11.8011 22.8347 12.3276C23.1617 14.0101 24.706 14.5831 27.4676 14.0465H27.4677ZM27.9324 10.4511C27.7768 9.47422 27.7522 8.39108 27.8587 7.20166C25.0495 7.25081 23.2038 8.24094 22.3216 10.172C24.4027 9.80455 26.273 9.89761 27.9324 10.4512V10.4511ZM27.9503 10.4546C27.9468 10.4542 27.9431 10.4537 27.9394 10.4532C27.9372 10.4532 27.935 10.4529 27.9329 10.4527C26.4887 10.2945 24.6176 10.2022 22.3196 10.176C22.3155 10.176 22.3115 10.176 22.3071 10.176C21.5095 10.1671 20.6604 10.1661 19.7598 10.173C16.5076 10.2217 14.6541 10.7289 14.1992 11.6948C14.1793 11.7372 14.1618 11.7807 14.1469 11.8251C14.1058 12.0728 14.1435 12.2875 14.26 12.4693C14.6559 13.0865 15.9608 13.3258 18.1745 13.1871C19.754 13.0458 21.2157 12.8741 22.5597 12.6722C22.5028 12.5064 22.4584 12.3367 22.4267 12.1646C24.1702 11.6322 25.9334 11.3522 27.7162 11.3247C27.7037 11.4157 27.6929 11.5064 27.6838 11.5965C27.8515 11.548 28.0159 11.4985 28.177 11.4482C28.2276 11.4321 28.276 11.416 28.322 11.3998C28.97 11.1708 29.1536 10.9204 28.873 10.6487C28.8012 10.5959 28.6592 10.5509 28.447 10.5139C28.2875 10.4931 28.122 10.4733 27.9503 10.4544V10.4546ZM23.4148 10.6683C23.7709 10.6841 23.769 10.7302 23.4093 10.8064C21.4746 11.2366 18.9857 11.5604 15.9426 11.7776C14.7083 11.8445 14.3577 11.6947 14.8909 11.3281C16.05 10.7273 18.6762 10.4989 22.7696 10.6429C22.9808 10.6504 23.1959 10.6588 23.4148 10.6683Z" fill="#3399CC"/>
<path d="M23.41 10.8063C23.7697 10.7302 23.7715 10.6842 23.4155 10.6682C23.1966 10.6588 22.9816 10.6504 22.7703 10.6428C18.677 10.4989 16.0508 10.7273 14.8917 11.328C14.3585 11.6945 14.709 11.8444 15.9434 11.7775C18.9864 11.5603 21.4753 11.2366 23.41 10.8063Z" fill="#4AA6D4"/>
</g>
<defs>
<clipPath id="clip0_63_2367">
<rect width="29" height="25" fill="white"/>
</clipPath>
</defs>
</svg>
