<svg width="16" height="16" viewBox="0 0 16 16" fill="none" xmlns="http://www.w3.org/2000/svg">
<path d="M2.19056 5.78251H4.9362V14H2.19056V5.78251Z" fill="#BCCAD2"/>
<path d="M3.56339 2C2.70134 2 2 2.67395 2 3.50232C2 4.33072 2.70134 5.00466 3.56339 5.00466C4.42546 5.00466 5.1268 4.33072 5.1268 3.50232C5.12678 2.67395 4.42544 2 3.56339 2Z" fill="#BCCAD2"/>
<path d="M13.9991 8.26348C13.9629 6.73196 12.6582 5.53229 11.029 5.53229C10.127 5.53229 9.28937 5.91641 8.72754 6.57399V5.78248H6.11705V14H8.86271V9.24999C8.86271 8.61713 9.39851 8.10226 10.0571 8.10226C10.7157 8.10226 11.2515 8.61706 11.2515 9.25004L11.2544 14H14L13.9991 8.26348Z" fill="#BCCAD2"/>
</svg>
