<svg width="55" height="55" viewBox="0 0 55 55" fill="none" xmlns="http://www.w3.org/2000/svg">
<g clip-path="url(#clip0_63_2321)">
<path d="M55 27.5C55 42.687 42.687 55 27.5 55C12.313 55 0 42.687 0 27.5C0 12.313 12.313 0 27.5 0C42.6902 0 55 12.313 55 27.5Z" fill="#5865F2"/>
<path d="M18.3825 34.2115C25.4736 36.9789 31.5081 37.5179 38.3465 33.2105C38.2964 33.2857 36.9437 35.2897 33.3865 36.3166C34.138 37.3438 35.165 38.5212 35.165 38.5212C37.4448 38.5212 39.6743 37.8698 41.6031 36.6173C43.1061 35.6152 43.9578 33.8867 43.7824 32.0832C43.4818 29.0019 42.7553 25.9959 41.6281 23.1151C40.2003 19.3575 36.7683 16.7522 32.7853 16.3764C32.4346 16.3513 32.184 16.3513 32.0338 16.3513L31.6329 16.7522C36.2172 18.0548 38.4969 20.0838 38.5469 20.159C31.5077 16.6019 23.1909 16.5518 16.1016 20.0088C16.1016 20.0088 18.3561 17.7792 23.3411 16.6019L23.0406 16.3012C22.5144 16.3012 22.0134 16.3513 21.4874 16.4265C17.805 17.0527 14.7238 19.5829 13.3961 23.0648C12.2437 26.0709 11.4922 29.2273 11.2167 32.4338C11.0664 34.1373 11.868 35.8157 13.2709 36.7927C15.1246 38.0201 17.329 38.6714 19.5585 38.6714C19.5585 38.6714 20.4603 37.4941 21.3622 36.4419C17.9804 35.4398 16.6025 33.4358 16.5775 33.3607L17.2139 33.6856C17.5945 33.8801 17.9845 34.0561 18.3825 34.2115ZM22.3141 32.033C20.6858 31.9829 19.4083 30.6052 19.4584 28.9518C19.5085 27.3987 20.761 26.1462 22.3141 26.0959C23.9424 26.1462 25.2199 27.524 25.1698 29.1773C25.0947 30.7305 23.8673 31.9829 22.3141 32.033ZM32.5348 32.033C30.9065 31.9829 29.6288 30.6052 29.6789 28.9518C29.729 27.3987 30.9817 26.1462 32.5348 26.0959C34.1631 26.1462 35.4406 27.524 35.3905 29.1773C35.3404 30.7305 34.0878 31.9829 32.5348 32.033Z" fill="white"/>
</g>
<defs>
<clipPath id="clip0_63_2321">
<rect width="55" height="55" fill="white"/>
</clipPath>
</defs>
</svg>
