<svg width="55" height="55" viewBox="0 0 55 55" fill="none" xmlns="http://www.w3.org/2000/svg">
<circle cx="27.5" cy="27.5" r="27.5" fill="#304DB9"/>
<path d="M42.7777 23.1597V36.9444C42.7777 37.7083 42.5106 38.3623 41.9763 38.9062C41.4421 39.4502 40.7998 39.7222 40.0495 39.7222H14.9503C14.2001 39.7222 13.5578 39.4502 13.0236 38.9062C12.4893 38.3623 12.2222 37.7083 12.2222 36.9444V23.1597C12.7223 23.7268 13.2964 24.2303 13.9443 24.6701C18.0593 27.5174 20.8841 29.5139 22.4187 30.6597C23.0667 31.1458 23.5924 31.5249 23.9959 31.7969C24.3995 32.0689 24.9366 32.3466 25.6073 32.6302C26.278 32.9138 26.9032 33.0555 27.4829 33.0555H27.517C28.0967 33.0555 28.7219 32.9138 29.3926 32.6302C30.0633 32.3466 30.6004 32.0689 31.0039 31.7969C31.4075 31.5249 31.9332 31.1458 32.5812 30.6597C34.5136 29.2361 37.3441 27.2396 41.0726 24.6701C41.7206 24.2187 42.2889 23.7153 42.7777 23.1597ZM42.7777 18.0555C42.7777 18.9699 42.4992 19.8437 41.9422 20.6771C41.3852 21.5104 40.6918 22.2222 39.862 22.8125C35.5878 25.8333 32.9279 27.7141 31.8821 28.4549C31.7684 28.5359 31.5268 28.7124 31.1574 28.9844C30.788 29.2564 30.481 29.4763 30.2366 29.6441C29.9922 29.8119 29.6967 30 29.35 30.2083C29.0033 30.4167 28.6765 30.5729 28.3696 30.6771C28.0626 30.7812 27.7784 30.8333 27.517 30.8333H27.4829C27.2214 30.8333 26.9373 30.7812 26.6303 30.6771C26.3234 30.5729 25.9966 30.4167 25.6499 30.2083C25.3032 30 25.0076 29.8119 24.7632 29.6441C24.5188 29.4763 24.2119 29.2564 23.8425 28.9844C23.473 28.7124 23.2315 28.5359 23.1178 28.4549C22.0834 27.7141 20.5943 26.658 18.6504 25.2865C16.7066 23.9149 15.5414 23.0903 15.155 22.8125C14.4502 22.3264 13.7852 21.658 13.16 20.8073C12.5348 19.9566 12.2222 19.1667 12.2222 18.4375C12.2222 17.5347 12.458 16.7824 12.9298 16.1805C13.4015 15.5787 14.0751 15.2778 14.9503 15.2778H40.0495C40.7884 15.2778 41.4278 15.5498 41.9678 16.0937C42.5077 16.6377 42.7777 17.2917 42.7777 18.0555Z" fill="white"/>
</svg>
