<svg width="36" height="36" viewBox="0 0 36 36" fill="none" xmlns="http://www.w3.org/2000/svg">
<g clip-path="url(#clip0_63_2233)">
<path d="M36 18C36 27.9406 27.9406 36 18 36C8.05943 36 0 27.9406 0 18C0 8.05943 8.05943 0 18 0C27.9427 0 36 8.05943 36 18Z" fill="#1D9BF0"/>
<path d="M27.9443 11.8175C27.1966 12.1415 26.424 12.3658 25.6016 12.4655C26.4489 11.9671 27.0969 11.1695 27.396 10.1975C26.5985 10.6711 25.7262 10.9951 24.804 11.1944C24.0563 10.3969 22.9846 9.89844 21.8132 9.89844C19.5452 9.89844 17.7259 11.7427 17.7259 13.9858C17.7259 14.3098 17.7508 14.6089 17.8256 14.908C14.436 14.7584 11.4452 13.1135 9.42647 10.6461C7.98094 13.2381 9.60094 15.3815 10.6726 16.1043C10.0246 16.1043 9.37663 15.9049 8.82832 15.6058C8.82832 17.6246 10.2489 19.2944 12.0932 19.6683C11.6945 19.7929 10.7972 19.8677 10.2489 19.7431C10.7723 21.3631 12.2926 22.5594 14.0622 22.5843C12.6665 23.6809 10.6228 24.5532 8.00586 24.2791C9.82524 25.4504 11.9686 26.1234 14.2865 26.1234C21.8132 26.1234 25.9006 19.8926 25.9006 14.5092C25.9006 14.3347 25.9006 14.1603 25.8757 13.9858C26.7231 13.3627 27.4209 12.64 27.9443 11.8175Z" fill="white"/>
</g>
<defs>
<clipPath id="clip0_63_2233">
<rect width="36" height="36" fill="white"/>
</clipPath>
</defs>
</svg>
