<svg width="36" height="36" viewBox="0 0 36 36" fill="none" xmlns="http://www.w3.org/2000/svg">
<g clip-path="url(#clip0_63_2230)">
<path d="M36 18C36 27.9406 27.9406 36 18 36C8.05943 36 0 27.9406 0 18C0 8.05943 8.05943 0 18 0C27.9427 0 36 8.05943 36 18Z" fill="#5865F2"/>
<path d="M12.0322 22.393C16.6736 24.2044 20.6235 24.5572 25.0995 21.7378C25.0667 21.787 24.1813 23.0987 21.853 23.7709C22.3449 24.4432 23.0171 25.2139 23.0171 25.2139C24.5093 25.2139 25.9686 24.7875 27.2311 23.9677C28.2149 23.3118 28.7724 22.1804 28.6576 20.9999C28.4608 18.9831 27.9853 17.0155 27.2475 15.1299C26.3129 12.6704 24.0665 10.9651 21.4595 10.7191C21.2299 10.7027 21.0659 10.7027 20.9676 10.7027L20.7052 10.9651C23.7058 11.8177 25.198 13.1458 25.2307 13.195C20.6232 10.8667 15.1795 10.8339 10.5392 13.0967C10.5392 13.0967 12.0149 11.6373 15.2778 10.8667L15.0811 10.6699C14.7367 10.6699 14.4088 10.7027 14.0645 10.7519C11.6542 11.1618 9.6374 12.8179 8.76835 15.097C8.01408 17.0646 7.52219 19.1306 7.34184 21.2294C7.24347 22.3444 7.76816 23.443 8.68638 24.0825C9.89972 24.8859 11.3426 25.3122 12.8019 25.3122C12.8019 25.3122 13.3922 24.5416 13.9825 23.8529C11.769 23.197 10.8671 21.8853 10.8507 21.8361L11.2673 22.0488C11.5164 22.1761 11.7717 22.2913 12.0322 22.393ZM14.6056 20.9671C13.5398 20.9343 12.7036 20.0325 12.7364 18.9503C12.7692 17.9337 13.589 17.1139 14.6056 17.081C15.6714 17.1139 16.5076 18.0157 16.4748 19.0979C16.4256 20.1145 15.6222 20.9343 14.6056 20.9671ZM21.2955 20.9671C20.2297 20.9343 19.3934 20.0325 19.4262 18.9503C19.459 17.9337 20.2789 17.1139 21.2955 17.081C22.3613 17.1139 23.1975 18.0157 23.1647 19.0979C23.1319 20.1145 22.312 20.9343 21.2955 20.9671Z" fill="white"/>
</g>
<defs>
<clipPath id="clip0_63_2230">
<rect width="36" height="36" fill="white"/>
</clipPath>
</defs>
</svg>
