<svg width="29" height="29" viewBox="0 0 29 29" fill="none" xmlns="http://www.w3.org/2000/svg">
<g clip-path="url(#clip0_63_2413)">
<path d="M22.0748 28.2002H6.32471C2.93846 28.2002 0.199707 25.4614 0.199707 22.0752H28.1998C28.1998 25.4614 25.461 28.2002 22.0748 28.2002Z" fill="url(#paint0_linear_63_2413)"/>
<path d="M22.0748 27.6752H6.32471C2.93846 27.6752 0.199707 24.9364 0.199707 21.5502V6.3252C0.199707 2.93895 2.93846 0.200195 6.32471 0.200195H22.0748C25.461 0.200195 28.1998 2.93895 28.1998 6.3252V21.5502C28.1998 24.9364 25.461 27.6752 22.0748 27.6752Z" fill="url(#paint1_linear_63_2413)"/>
<path d="M22.0748 27.0628H6.32471C2.93846 27.0628 0.199707 24.3241 0.199707 20.9378V8.95033C0.199707 5.56408 28.1998 5.56408 28.1998 8.95033V20.9378C28.1998 24.3241 25.461 27.0628 22.0748 27.0628Z" fill="url(#paint2_linear_63_2413)"/>
<path d="M0.199707 8.9502V6.3252C0.199707 2.93895 2.93846 0.200195 6.32471 0.200195H22.0748C25.461 0.200195 28.1998 2.93895 28.1998 6.3252V8.9502H0.199707Z" fill="url(#paint3_radial_63_2413)"/>
<path d="M6.67471 3.39395H18.0848C22.1448 3.39395 22.0748 0.200195 22.0748 0.200195H6.32471C2.93846 0.200195 0.199707 2.93895 0.199707 6.3252V8.9502H0.260957C0.707207 5.80895 3.41096 3.39395 6.67471 3.39395Z" fill="url(#paint4_linear_63_2413)"/>
<path d="M11.5049 5.54629C11.5049 6.40379 10.9012 6.92879 10.0174 6.92879C9.12494 6.92004 8.56494 6.36879 8.56494 5.54629V5.31879H9.35244V5.51129C9.35244 5.95754 9.61494 6.18504 10.0087 6.18504C10.4462 6.18504 10.6737 5.92254 10.6737 5.51129V3.09629H9.26494V2.35254H11.4874V5.54629H11.5049Z" fill="white"/>
<path d="M12.4502 2.35254H13.2727V5.18754C13.2727 5.92254 13.7714 6.18504 14.3139 6.18504C14.9264 6.18504 15.3639 5.86129 15.3639 5.18754V2.35254H16.1864V5.22254C16.1864 6.36004 15.3814 6.92879 14.3139 6.92879C13.2377 6.92879 12.4502 6.34254 12.4502 5.22254V2.35254Z" fill="white"/>
<path d="M19.8347 6.09754V6.84129H17.1572V2.35254H17.9797V6.09754H19.8347Z" fill="white"/>
<path d="M5.99219 14.5238C8.22344 14.5238 9.13344 13.7364 9.42219 12.4062H11.601V24.7438H9.15969V16.3526H5.99219V14.5238Z" fill="url(#paint5_linear_63_2413)"/>
<path d="M22.5823 12.4062V14.3138L17.7873 24.7438H15.1885L19.8873 14.5063H14.3223V12.4062H22.5823Z" fill="url(#paint6_linear_63_2413)"/>
<path d="M11.6014 17.7793C10.7089 17.5693 9.89516 17.4293 9.16016 17.5081V24.7531H11.6014V17.7793Z" fill="url(#paint7_linear_63_2413)"/>
<path d="M17.9453 18.7325L15.189 24.7438H17.7878L20.8415 18.1025C19.8265 18.4788 18.8553 18.6625 17.9453 18.7325Z" fill="url(#paint8_linear_63_2413)"/>
</g>
<defs>
<linearGradient id="paint0_linear_63_2413" x1="13.8203" y1="17.8615" x2="14.9578" y2="30.899" gradientUnits="userSpaceOnUse">
<stop stop-color="white"/>
<stop offset="1" stop-color="#CBD4DB"/>
</linearGradient>
<linearGradient id="paint1_linear_63_2413" x1="13.4441" y1="2.33297" x2="14.647" y2="20.8055" gradientUnits="userSpaceOnUse">
<stop stop-color="white"/>
<stop offset="1" stop-color="#E7EBEE"/>
</linearGradient>
<linearGradient id="paint2_linear_63_2413" x1="13.5668" y1="22.8513" x2="15.0077" y2="5.11021" gradientUnits="userSpaceOnUse">
<stop stop-color="white"/>
<stop offset="1" stop-color="#E7EBEE"/>
</linearGradient>
<radialGradient id="paint3_radial_63_2413" cx="0" cy="0" r="1" gradientUnits="userSpaceOnUse" gradientTransform="translate(15.0203 9.08338) rotate(8.70783) scale(21.1743 12.0749)">
<stop offset="0.0296695" stop-color="#FF0000"/>
<stop offset="1" stop-color="#C20000"/>
</radialGradient>
<linearGradient id="paint4_linear_63_2413" x1="7.13123" y1="-4.62777" x2="13.6063" y2="10.2472" gradientUnits="userSpaceOnUse">
<stop stop-color="#FF0000"/>
<stop offset="1" stop-color="#FF0000" stop-opacity="0"/>
</linearGradient>
<linearGradient id="paint5_linear_63_2413" x1="10.0099" y1="18.2536" x2="14.2682" y2="31.8452" gradientUnits="userSpaceOnUse">
<stop/>
<stop offset="1" stop-color="#8EA5A8"/>
</linearGradient>
<linearGradient id="paint6_linear_63_2413" x1="17.9987" y1="15.7506" x2="22.257" y2="29.3423" gradientUnits="userSpaceOnUse">
<stop/>
<stop offset="1" stop-color="#8EA5A8"/>
</linearGradient>
<linearGradient id="paint7_linear_63_2413" x1="10.8904" y1="25.3861" x2="9.21471" y2="11.9802" gradientUnits="userSpaceOnUse">
<stop/>
<stop offset="1" stop-color="#8EA5A8"/>
</linearGradient>
<linearGradient id="paint8_linear_63_2413" x1="18.8973" y1="28.4903" x2="15.8292" y2="3.94537" gradientUnits="userSpaceOnUse">
<stop/>
<stop offset="1" stop-color="#8EA5A8"/>
</linearGradient>
<clipPath id="clip0_63_2413">
<rect width="29" height="29" fill="white"/>
</clipPath>
</defs>
</svg>
