<svg width="29" height="29" viewBox="0 0 29 29" fill="none" xmlns="http://www.w3.org/2000/svg">
<g clip-path="url(#clip0_63_2431)">
<path d="M25.5891 0.830518H3.41065C3.0793 0.826402 2.7505 0.887616 2.44281 1.01062C2.13512 1.13363 1.85462 1.31599 1.61743 1.5474C1.38024 1.7788 1.19108 2.05465 1.06051 2.35921C0.92994 2.66377 0.860511 2.99114 0.856445 3.32249V24.9504C0.860511 25.2818 0.92994 25.6092 1.06051 25.9137C1.19108 26.2183 1.38024 26.4941 1.61743 26.7255C1.85462 26.9569 2.13512 27.1393 2.44281 27.2623C2.7505 27.3853 3.0793 27.4465 3.41065 27.4424H25.5891C26.2587 27.4507 26.9042 27.193 27.3841 26.7258C27.8639 26.2586 28.1388 25.6201 28.1483 24.9504V3.32249C28.1388 2.65283 27.8639 2.01434 27.3841 1.54714C26.9042 1.07995 26.2587 0.822198 25.5891 0.830518Z" fill="#CCD6DD"/>
<path d="M25.5892 -0.000160452H3.41076C2.51803 -0.0112506 1.65755 0.332534 1.01803 0.955511C0.378507 1.57849 0.012312 2.42979 0 3.32251V24.9505C0.013676 25.8427 0.380074 26.6933 1.0193 27.3159C1.65852 27.9386 2.51843 28.2828 3.41076 28.2731H25.5892C26.4819 28.2842 27.3424 27.9404 27.9819 27.3175C28.6214 26.6945 28.9876 25.8432 28.9999 24.9505V3.32251C28.9945 2.88027 28.9021 2.44347 28.7277 2.03704C28.5533 1.63062 28.3002 1.26247 27.9834 0.953863C27.6666 0.645257 27.2921 0.402207 26.8812 0.238504C26.4704 0.0748008 26.0314 -0.00633625 25.5892 -0.000160452ZM25.5892 1.66124C26.0349 1.65707 26.4641 1.82945 26.7831 2.14072C27.1022 2.45199 27.2851 2.87682 27.2919 3.32251V6.67103H22.1782V1.6819L25.5892 1.66124ZM22.1782 14.9671H27.2919V19.9563H22.1782V14.9671ZM22.1782 13.3059V8.31671H27.2919V13.3059H22.1782ZM20.4704 1.66124V6.67103H15.3513V1.6819L20.4704 1.66124ZM15.3513 8.31671H20.4704V13.3059H15.3513V8.31671ZM15.3513 14.9671H20.4704V19.9563H15.3513V14.9671ZM13.6486 1.66124V6.67103H8.52981V1.6819L13.6486 1.66124ZM8.52981 8.31671H13.6486V13.3059H8.52981V8.31671ZM8.52981 14.9671H13.6486V19.9563H8.52981V14.9671ZM1.70804 3.32251C1.71488 2.87682 1.89775 2.45199 2.2168 2.14072C2.53585 1.82945 2.96504 1.65707 3.41076 1.66124H6.84762V6.67103H1.72883L1.70804 3.32251ZM1.70804 8.31671H6.84762V13.3059H1.72883L1.70804 8.31671ZM1.70804 14.9671H6.84762V19.9563H1.72883L1.70804 14.9671ZM3.41076 26.6117C2.96504 26.6159 2.53585 26.4435 2.2168 26.1323C1.89775 25.821 1.71488 25.3961 1.70804 24.9505V21.6227H6.84762V26.6117H3.41076ZM8.52981 26.6117V21.6227H13.6486V26.6117H8.52981ZM15.3513 26.6117V21.6227H20.4704V26.6117H15.3513ZM25.5892 26.6117H22.1782V21.6227H27.2919V24.9505C27.2851 25.3961 27.1022 25.821 26.7831 26.1323C26.4641 26.4435 26.0349 26.6159 25.5892 26.6117Z" fill="#E1E8ED"/>
<path d="M3.41104 26.6118C3.13076 26.6124 2.85466 26.5448 2.60646 26.4146C2.41025 26.315 2.23595 26.1771 2.09414 26.0088C1.95234 25.8406 1.84598 25.6457 1.78108 25.4354C1.71618 25.2252 1.69415 25.0041 1.71644 24.7852C1.73873 24.5664 1.80492 24.3542 1.91087 24.1614L7.88115 13.3475C8.01019 13.1174 8.1907 12.9202 8.40867 12.7715C8.62665 12.6229 8.87612 12.5268 9.13747 12.4908C9.39933 12.4534 9.66613 12.476 9.91797 12.557C10.1698 12.6379 10.4 12.7751 10.591 12.9581L15.7825 18.0147L24.089 2.55422C24.3046 2.15984 24.666 1.86556 25.0959 1.73454C25.5258 1.60353 25.9901 1.64617 26.389 1.85331C26.582 1.95203 26.7535 2.08803 26.8937 2.25345C27.0338 2.41887 27.1396 2.61047 27.2052 2.81709C27.2709 3.02371 27.2951 3.24132 27.2762 3.45729C27.2573 3.67326 27.1956 3.88327 27.095 4.07531L17.7139 21.5396C17.5863 21.7729 17.4064 21.9735 17.1884 22.1257C16.9705 22.2779 16.7202 22.3776 16.4573 22.4171C16.1935 22.4539 15.9248 22.4306 15.6713 22.3488C15.4177 22.267 15.186 22.1287 14.9934 21.9446L9.80187 16.8724L4.92187 25.6981C4.77627 25.9728 4.55874 26.203 4.2927 26.3639C4.02665 26.5248 3.72197 26.6104 3.41104 26.6118Z" fill="#DD2E44"/>
</g>
<defs>
<clipPath id="clip0_63_2431">
<rect width="29" height="29" fill="white"/>
</clipPath>
</defs>
</svg>
