<svg width="29" height="29" viewBox="0 0 29 29" fill="none" xmlns="http://www.w3.org/2000/svg">
<g clip-path="url(#clip0_63_2382)">
<path d="M14.1998 28.2002C21.9317 28.2002 28.1998 21.9322 28.1998 14.2002C28.1998 6.46821 21.9317 0.200195 14.1998 0.200195C6.46772 0.200195 0.199707 6.46821 0.199707 14.2002C0.199707 21.9322 6.46772 28.2002 14.1998 28.2002Z" fill="url(#paint0_radial_63_2382)"/>
<path opacity="0.5" d="M14.1998 28.2002C21.9317 28.2002 28.1998 21.9322 28.1998 14.2002C28.1998 6.46821 21.9317 0.200195 14.1998 0.200195C6.46772 0.200195 0.199707 6.46821 0.199707 14.2002C0.199707 21.9322 6.46772 28.2002 14.1998 28.2002Z" fill="url(#paint1_radial_63_2382)"/>
<path d="M11.12 6.94662C11.12 6.38662 10.5163 6.03662 9.46625 6.03662C8.5825 6.03662 6.63125 6.52662 5.29251 8.25037C5.04751 8.56537 5.42376 8.74037 5.66876 8.53912C6.49125 7.83912 8.705 6.93787 10.4288 7.13037C11.12 7.20037 11.12 6.94662 11.12 6.94662Z" fill="url(#paint2_linear_63_2382)"/>
<path d="M17.2798 6.94662C17.2798 6.38662 17.8835 6.03662 18.9335 6.03662C19.8173 6.03662 21.7685 6.52662 23.1073 8.25037C23.3523 8.56537 22.976 8.74037 22.731 8.53912C21.9085 7.83912 19.6948 6.93787 17.971 7.13037C17.2798 7.20037 17.2798 6.94662 17.2798 6.94662Z" fill="url(#paint3_linear_63_2382)"/>
<path opacity="0.5" d="M2.85154 16.9739C2.85154 16.9739 1.63529 15.6001 1.24154 11.7676C1.21529 11.4789 0.830293 11.2251 0.550293 11.0851C0.716543 10.3589 0.935293 9.65885 1.20654 8.97635C1.50404 8.92385 1.92404 8.85385 2.49279 8.7926C4.57529 8.55635 8.00529 8.5476 9.59779 9.02885C11.8115 9.69385 12.6078 10.6214 13.9553 10.6214V11.3476C12.3803 11.3476 13.6928 14.0689 11.5228 16.4839C9.79029 18.4176 3.94529 18.4526 2.85154 16.9739Z" fill="url(#paint4_radial_63_2382)"/>
<path opacity="0.5" d="M25.5486 16.9739C25.5486 16.9739 26.7648 15.6001 27.1586 11.7676C27.1848 11.4789 27.5698 11.2251 27.8498 11.0851C27.6836 10.3589 27.4648 9.65885 27.1936 8.97635C26.8961 8.92385 26.4761 8.85385 25.9073 8.7926C23.8248 8.55635 20.3948 8.5476 18.8023 9.02885C16.5886 9.69385 15.7923 10.6214 14.4448 10.6214V11.3476C16.0198 11.3476 14.7073 14.0689 16.8773 16.4839C18.6098 18.4176 24.4548 18.4526 25.5486 16.9739Z" fill="url(#paint5_radial_63_2382)"/>
<path d="M20.1848 10.9011C20.1848 10.9011 22.626 11.1461 23.3085 12.9924C23.3523 13.1061 23.3785 13.2286 23.3698 13.3511C23.3698 13.5961 23.1423 13.8586 22.7048 13.6224C20.0273 12.1436 18.4785 12.8436 17.3235 13.3249C16.8772 13.5174 16.4747 13.0624 16.6147 12.6599C16.6497 12.5461 16.6847 12.4236 16.746 12.3186C17.7435 10.6386 20.1848 10.9011 20.1848 10.9011Z" fill="url(#paint6_radial_63_2382)"/>
<path d="M20.1324 11.4786C20.1324 11.4786 22.1187 11.6799 23.3612 13.2024C23.3525 13.1324 23.335 13.0624 23.3087 12.9924C22.6262 11.1461 20.1849 10.9011 20.1849 10.9011C20.1849 10.9011 17.7437 10.6386 16.7462 12.3186C16.7112 12.3799 16.6762 12.4499 16.6587 12.5199C18.1374 11.2686 20.1324 11.4786 20.1324 11.4786Z" fill="url(#paint7_linear_63_2382)"/>
<path d="M8.215 10.9011C8.215 10.9011 5.77375 11.1461 5.09125 12.9924C5.0475 13.1061 5.02125 13.2286 5.03 13.3511C5.03 13.5961 5.2575 13.8586 5.695 13.6224C8.3725 12.1436 9.92125 12.8436 11.0762 13.3249C11.5225 13.5174 11.925 13.0624 11.785 12.6599C11.75 12.5461 11.715 12.4236 11.6537 12.3186C10.6562 10.6386 8.215 10.9011 8.215 10.9011Z" fill="url(#paint8_radial_63_2382)"/>
<path d="M8.26732 11.4786C8.26732 11.4786 6.28107 11.6799 5.03857 13.2024C5.04732 13.1324 5.06482 13.0624 5.09107 12.9924C5.77357 11.1461 8.21482 10.9011 8.21482 10.9011C8.21482 10.9011 10.6561 10.6386 11.6536 12.3186C11.6886 12.3799 11.7236 12.4499 11.7411 12.5199C10.2623 11.2686 8.26732 11.4786 8.26732 11.4786Z" fill="url(#paint9_linear_63_2382)"/>
<path d="M20.3862 18.9951C20.2725 18.9776 20.15 19.0126 20.0712 19.0914C18.5662 20.5001 16.2475 21.2614 14.4975 21.2614H14.2H13.9025C12.1525 21.2614 9.83372 20.5001 8.32872 19.0914C8.24122 19.0126 8.12747 18.9776 8.01372 18.9951C7.89122 19.0214 7.82997 19.1526 7.89122 19.2576C9.17747 21.4801 11.5487 22.8539 14.13 22.8539H14.2087H14.2875C16.8687 22.8539 19.24 21.4801 20.5262 19.2576C20.57 19.1526 20.5087 19.0214 20.3862 18.9951Z" fill="#643800"/>
<path d="M20.3862 18.9951C20.2725 18.9776 20.15 19.0126 20.0712 19.0914C18.5662 20.5001 16.2475 21.2614 14.4975 21.2614H14.2H13.9025C12.1525 21.2614 9.83372 20.5001 8.32872 19.0914C8.24122 19.0126 8.12747 18.9776 8.01372 18.9951C7.89122 19.0214 7.82997 19.1526 7.89122 19.2576C7.89997 19.2839 7.91747 19.3014 7.93497 19.3189C8.05747 19.2489 8.18872 19.1789 8.31997 19.3276C9.74622 20.9289 11.8637 21.8914 14.13 21.8914H14.2087H14.2875C16.5712 21.8914 18.6975 20.9201 20.1237 19.2926C20.255 19.1439 20.3775 19.2139 20.4912 19.2926C20.5 19.2751 20.5087 19.2664 20.5175 19.2489C20.57 19.1526 20.5087 19.0214 20.3862 18.9951Z" fill="url(#paint10_linear_63_2382)"/>
<path d="M7.43625 8.78393C5.65124 8.65268 3.55999 8.48643 3.14874 9.87768C2.73749 11.2689 3.00874 13.3689 3.96249 14.9352C4.91624 16.5014 8.69625 16.4139 10.0612 15.5827C11.8812 14.4802 12.0387 12.6164 12.0912 11.4877C12.1525 9.99143 10.1837 8.97643 7.43625 8.78393Z" fill="url(#paint11_linear_63_2382)"/>
<path d="M20.9284 8.78393C22.7134 8.65268 24.8047 8.48643 25.2159 9.87768C25.6272 11.2689 25.3559 13.3689 24.4022 14.9352C23.4484 16.5014 19.6684 16.4139 18.3034 15.5827C16.4834 14.4802 16.3259 12.6164 16.2734 11.4877C16.2122 9.99143 18.1809 8.97643 20.9284 8.78393Z" fill="url(#paint12_linear_63_2382)"/>
<path d="M27.6226 8.28514C27.6226 8.28514 27.1763 8.11014 25.6451 7.93514C23.5626 7.69889 20.1326 7.69014 18.5401 8.17139C16.3263 8.83639 15.5301 9.76389 14.1826 9.76389C12.8351 9.76389 12.0388 8.83639 9.81639 8.16264C8.23263 7.68139 4.80263 7.69014 2.71138 7.92639C1.18888 8.10139 0.733887 8.27639 0.733887 8.27639C0.733887 8.42514 0.733887 8.60014 0.742637 8.79264C0.742637 8.79264 1.68763 8.95014 1.69638 9.03764C1.69638 9.08139 0.768887 9.16889 0.768887 9.16889C0.786387 9.32639 0.812637 9.49264 0.847637 9.66764L1.21513 9.84264C1.50388 9.97389 1.69638 10.2539 1.72263 10.5689C2.11638 14.4014 3.33263 15.9501 3.33263 15.9501C4.42638 17.4201 9.57139 17.9189 11.3038 15.9851C13.4738 13.5614 12.5988 11.3739 14.1738 11.3739C15.7488 11.3739 14.8738 13.5701 17.0438 15.9851C18.7763 17.9189 23.9213 17.4201 25.0151 15.9501C25.0151 15.9501 26.2313 14.4014 26.6251 10.5689C26.6601 10.2539 26.8526 9.97389 27.1326 9.84264L27.5001 9.66764C27.5351 9.49264 27.5613 9.32639 27.5788 9.16889C27.5788 9.16889 26.7126 9.08139 26.7213 9.03764C26.7301 8.95014 27.6138 8.79264 27.6138 8.79264C27.6313 8.60014 27.6313 8.42514 27.6226 8.28514ZM10.0613 15.5739C8.69638 16.4051 4.92513 16.4926 3.96263 14.9264C3.00888 13.3689 2.73763 11.2601 3.14888 9.86889C3.56013 8.47764 5.65138 8.65264 7.43638 8.77514C10.1838 8.97639 12.1526 9.99139 12.0913 11.4789C12.0388 12.6076 11.8813 14.4714 10.0613 15.5739ZM24.3938 14.9264C23.4401 16.4839 19.6601 16.4051 18.2951 15.5739C16.4751 14.4714 16.3176 12.6076 16.2651 11.4789C16.2038 9.99139 18.1726 8.97639 20.9201 8.77514C22.7051 8.64389 24.7963 8.47764 25.2076 9.86889C25.6188 11.2689 25.3563 13.3689 24.3938 14.9264Z" fill="url(#paint13_linear_63_2382)"/>
<path d="M7.43625 8.78393C5.65124 8.65268 3.55999 8.48643 3.14874 9.87768C2.73749 11.2689 3.00874 13.3689 3.96249 14.9352C4.91624 16.5014 8.69625 16.4139 10.0612 15.5827C11.8812 14.4802 12.0387 12.6164 12.0912 11.4877C12.1525 9.99143 10.1837 8.97643 7.43625 8.78393Z" fill="url(#paint14_linear_63_2382)"/>
<path d="M10.0614 15.5739C8.6964 16.4052 4.92515 16.4927 3.96265 14.9264C3.15765 13.6139 2.84265 11.9164 3.0089 10.5864C3.0089 10.5952 3.00015 10.5952 3.00015 10.6039C2.8514 12.0389 3.1139 13.7277 3.9014 15.1189C4.87265 16.8339 8.7139 16.7377 10.1051 15.8277C11.5314 14.8914 11.8989 13.5614 12.0126 12.3889C11.8726 13.4564 11.4439 14.7339 10.0614 15.5739Z" fill="url(#paint15_linear_63_2382)"/>
<path opacity="0.75" d="M15.0487 11.374C15.0749 10.919 15.1799 10.464 15.3637 10.0527L15.6524 9.39648C15.1712 9.61523 14.7162 9.76398 14.1824 9.76398C13.6487 9.76398 13.1937 9.61523 12.7124 9.39648L13.0012 10.0527C13.1849 10.4727 13.2899 10.919 13.3162 11.374L13.3424 11.794C13.5174 11.5227 13.7624 11.3652 14.1824 11.3652C14.6024 11.3652 14.8474 11.5227 15.0224 11.794L15.0487 11.374Z" fill="url(#paint16_radial_63_2382)"/>
<path opacity="0.75" d="M3.14844 10.0614C3.55969 8.67014 5.65094 8.84514 7.43594 8.96764C10.0872 9.16014 12.0122 10.1051 12.091 11.5139C12.091 11.5051 12.091 11.4876 12.091 11.4789C12.1522 9.99139 10.1835 8.97639 7.43594 8.77514C5.65094 8.64389 3.55969 8.47764 3.14844 9.86889C3.01719 10.3239 2.95594 10.8489 2.96469 11.4089C2.97344 10.9189 3.03469 10.4639 3.14844 10.0614Z" fill="black"/>
<path d="M0.742676 8.79248C0.751426 8.90623 0.760176 9.03748 0.777676 9.16873H2.16892C2.37892 9.16873 2.54517 9.00248 2.54517 8.79248H0.742676Z" fill="url(#paint17_linear_63_2382)"/>
<path d="M20.9284 8.78393C22.7134 8.65268 24.8047 8.48643 25.2159 9.87768C25.6272 11.2689 25.3559 13.3689 24.4022 14.9352C23.4484 16.5014 19.6684 16.4139 18.3034 15.5827C16.4834 14.4802 16.3259 12.6164 16.2734 11.4877C16.2122 9.99143 18.1809 8.97643 20.9284 8.78393Z" fill="url(#paint18_linear_63_2382)"/>
<path d="M18.2946 15.5739C19.6596 16.4052 23.4308 16.4927 24.3933 14.9264C25.1983 13.6139 25.5133 11.9164 25.3471 10.5864C25.3471 10.5952 25.3558 10.5952 25.3558 10.6039C25.5046 12.0389 25.2421 13.7277 24.4546 15.1189C23.4833 16.8339 19.6421 16.7377 18.2508 15.8277C16.8246 14.8914 16.4571 13.5614 16.3433 12.3889C16.4921 13.4564 16.9121 14.7339 18.2946 15.5739Z" fill="url(#paint19_linear_63_2382)"/>
<path opacity="0.75" d="M25.2071 10.0614C24.7959 8.67014 22.7046 8.84514 20.9196 8.96764C18.2684 9.16014 16.3434 10.1051 16.2646 11.5139C16.2646 11.5051 16.2646 11.4876 16.2646 11.4789C16.2034 9.99139 18.1721 8.97639 20.9196 8.77514C22.7046 8.64389 24.7959 8.47764 25.2071 9.86889C25.3384 10.3239 25.3996 10.8489 25.3909 11.4089C25.3909 10.9189 25.3296 10.4639 25.2071 10.0614Z" fill="black"/>
<path d="M27.6223 8.79248C27.6136 8.90623 27.6048 9.03748 27.5873 9.16873H26.1961C25.9861 9.16873 25.8198 9.00248 25.8198 8.79248H27.6223Z" fill="url(#paint20_linear_63_2382)"/>
<path opacity="0.5" d="M20.9284 8.78393C22.7134 8.65268 24.8046 8.48643 25.2159 9.87768C25.6271 11.2689 25.3559 13.3689 24.4021 14.9352C23.4484 16.5014 19.6684 16.4139 18.3034 15.5827C16.4834 14.4802 16.3259 12.6164 16.2734 11.4877C16.2121 9.99143 18.1809 8.97643 20.9284 8.78393Z" fill="url(#paint21_radial_63_2382)"/>
<path opacity="0.5" d="M7.44496 9.09895C5.72996 8.97645 3.72621 8.8102 3.33246 10.149C2.93871 11.4877 3.20121 13.5002 4.11996 15.0052C5.03871 16.5102 8.66121 16.4227 9.97371 15.6265C11.7149 14.5677 11.8724 12.774 11.9162 11.6977C11.9687 10.2627 10.0699 9.29144 7.44496 9.09895Z" fill="url(#paint22_radial_63_2382)"/>
<path d="M13.0365 10.0526L12.7478 9.39639C12.0128 9.06389 11.1903 8.56514 9.85154 8.16264C8.26779 7.68139 4.83779 7.69014 2.74654 7.92639C1.22404 8.10139 0.769043 8.27639 0.769043 8.27639C0.769043 8.42514 0.769043 8.60014 0.777793 8.79264C4.03279 8.51264 7.97029 7.86514 12.6078 10.0001C12.7303 10.0614 12.8878 10.0789 13.0453 10.0701C13.0453 10.0614 13.0365 10.0526 13.0365 10.0526Z" fill="url(#paint23_radial_63_2382)"/>
<path d="M15.3989 10.0526L15.6876 9.39639C16.4226 9.06389 17.2451 8.56514 18.5839 8.16264C20.1676 7.68139 23.5976 7.69014 25.6889 7.92639C27.2114 8.10139 27.6664 8.27639 27.6664 8.27639C27.6751 8.42514 27.6839 8.59139 27.6751 8.78389C24.4201 8.50389 20.4826 7.85639 15.8451 9.99139C15.7226 10.0526 15.5651 10.0701 15.4076 10.0614C15.3989 10.0614 15.3989 10.0526 15.3989 10.0526Z" fill="url(#paint24_radial_63_2382)"/>
</g>
<defs>
<radialGradient id="paint0_radial_63_2382" cx="0" cy="0" r="1" gradientUnits="userSpaceOnUse" gradientTransform="translate(11.4452 8.52647) scale(16.8892)">
<stop stop-color="#FFE030"/>
<stop offset="1" stop-color="#FFB92E"/>
</radialGradient>
<radialGradient id="paint1_radial_63_2382" cx="0" cy="0" r="1" gradientUnits="userSpaceOnUse" gradientTransform="translate(11.4452 8.52647) scale(13.2875)">
<stop stop-color="#FFEA5F"/>
<stop offset="1" stop-color="#FFBC47" stop-opacity="0"/>
</radialGradient>
<linearGradient id="paint2_linear_63_2382" x1="8.16783" y1="7.88498" x2="8.16783" y2="6.40977" gradientUnits="userSpaceOnUse">
<stop offset="0.00132565" stop-color="#3C2200"/>
<stop offset="1" stop-color="#7A4400"/>
</linearGradient>
<linearGradient id="paint3_linear_63_2382" x1="20.232" y1="7.88498" x2="20.232" y2="6.40977" gradientUnits="userSpaceOnUse">
<stop offset="0.00132565" stop-color="#3C2200"/>
<stop offset="1" stop-color="#7A4400"/>
</linearGradient>
<radialGradient id="paint4_radial_63_2382" cx="0" cy="0" r="1" gradientUnits="userSpaceOnUse" gradientTransform="translate(1.95674 11.3511) rotate(180) scale(14.1315 14.1315)">
<stop stop-color="#7A4400" stop-opacity="0.5"/>
<stop offset="0.5833" stop-color="#894D00" stop-opacity="0.2069"/>
<stop offset="0.995" stop-color="#975500" stop-opacity="0"/>
</radialGradient>
<radialGradient id="paint5_radial_63_2382" cx="0" cy="0" r="1" gradientUnits="userSpaceOnUse" gradientTransform="translate(26.4434 11.3511) scale(14.1315 14.1315)">
<stop stop-color="#7A4400" stop-opacity="0.5"/>
<stop offset="0.5833" stop-color="#894D00" stop-opacity="0.2069"/>
<stop offset="0.995" stop-color="#975500" stop-opacity="0"/>
</radialGradient>
<radialGradient id="paint6_radial_63_2382" cx="0" cy="0" r="1" gradientUnits="userSpaceOnUse" gradientTransform="translate(20.0524 12.2795) rotate(5.86799) scale(2.63872 1.2731)">
<stop offset="0.00132565" stop-color="#7A4400"/>
<stop offset="1" stop-color="#643800"/>
</radialGradient>
<linearGradient id="paint7_linear_63_2382" x1="20.2701" y1="10.1303" x2="20.1055" y2="11.8272" gradientUnits="userSpaceOnUse">
<stop offset="0.00132565" stop-color="#3C2200"/>
<stop offset="1" stop-color="#512D00"/>
</linearGradient>
<radialGradient id="paint8_radial_63_2382" cx="0" cy="0" r="1" gradientUnits="userSpaceOnUse" gradientTransform="translate(8.36682 12.2792) rotate(174.132) scale(2.63871 1.2731)">
<stop offset="0.00132565" stop-color="#7A4400"/>
<stop offset="1" stop-color="#643800"/>
</radialGradient>
<linearGradient id="paint9_linear_63_2382" x1="8.14002" y1="10.1314" x2="8.30461" y2="11.8282" gradientUnits="userSpaceOnUse">
<stop offset="0.00132565" stop-color="#3C2200"/>
<stop offset="1" stop-color="#512D00"/>
</linearGradient>
<linearGradient id="paint10_linear_63_2382" x1="14.2" y1="19.9847" x2="14.2" y2="22.0747" gradientUnits="userSpaceOnUse">
<stop offset="0.00132565" stop-color="#3C2200"/>
<stop offset="1" stop-color="#512D00"/>
</linearGradient>
<linearGradient id="paint11_linear_63_2382" x1="7.5284" y1="24.207" x2="7.5284" y2="11.2563" gradientUnits="userSpaceOnUse">
<stop stop-color="#8800C7"/>
<stop offset="1" stop-color="#7000A3" stop-opacity="0"/>
</linearGradient>
<linearGradient id="paint12_linear_63_2382" x1="20.8335" y1="24.207" x2="20.8335" y2="11.2563" gradientUnits="userSpaceOnUse">
<stop stop-color="#8800C7"/>
<stop offset="1" stop-color="#7000A3" stop-opacity="0"/>
</linearGradient>
<linearGradient id="paint13_linear_63_2382" x1="14.1812" y1="12.8249" x2="14.1812" y2="3.11491" gradientUnits="userSpaceOnUse">
<stop stop-color="#242424"/>
<stop offset="1" stop-color="#8EA5A8"/>
</linearGradient>
<linearGradient id="paint14_linear_63_2382" x1="2.64356" y1="4.13637" x2="12.4533" y2="20.1887" gradientUnits="userSpaceOnUse">
<stop/>
<stop offset="1" stop-opacity="0.5"/>
</linearGradient>
<linearGradient id="paint15_linear_63_2382" x1="7.48783" y1="12.5902" x2="7.48783" y2="20.0115" gradientUnits="userSpaceOnUse">
<stop/>
<stop offset="1" stop-color="#8EA5A8"/>
</linearGradient>
<radialGradient id="paint16_radial_63_2382" cx="0" cy="0" r="1" gradientUnits="userSpaceOnUse" gradientTransform="translate(14.1646 10.3152) scale(1.6535 1.01047)">
<stop offset="0.0158651" stop-color="#8EA5A8" stop-opacity="0.25"/>
<stop offset="1" stop-color="#8EA5A8" stop-opacity="0"/>
</radialGradient>
<linearGradient id="paint17_linear_63_2382" x1="2.62206" y1="8.97592" x2="0.904866" y2="8.97592" gradientUnits="userSpaceOnUse">
<stop stop-color="white"/>
<stop offset="1" stop-color="#FFBF00"/>
</linearGradient>
<linearGradient id="paint18_linear_63_2382" x1="15.6561" y1="3.70214" x2="26.7332" y2="20.6462" gradientUnits="userSpaceOnUse">
<stop/>
<stop offset="1" stop-opacity="0.5"/>
</linearGradient>
<linearGradient id="paint19_linear_63_2382" x1="20.8742" y1="12.5902" x2="20.8742" y2="20.0115" gradientUnits="userSpaceOnUse">
<stop/>
<stop offset="1" stop-color="#8EA5A8"/>
</linearGradient>
<linearGradient id="paint20_linear_63_2382" x1="25.7402" y1="8.97592" x2="27.4574" y2="8.97592" gradientUnits="userSpaceOnUse">
<stop stop-color="white"/>
<stop offset="1" stop-color="#FFBF00"/>
</linearGradient>
<radialGradient id="paint21_radial_63_2382" cx="0" cy="0" r="1" gradientUnits="userSpaceOnUse" gradientTransform="translate(20.9873 10.959) rotate(180) scale(4.83278 1.68255)">
<stop stop-color="white" stop-opacity="0.24"/>
<stop offset="1" stop-color="white" stop-opacity="0"/>
</radialGradient>
<radialGradient id="paint22_radial_63_2382" cx="0" cy="0" r="1" gradientUnits="userSpaceOnUse" gradientTransform="translate(7.66324 11.1933) scale(4.63446 1.61338)">
<stop stop-color="white" stop-opacity="0.24"/>
<stop offset="1" stop-color="white" stop-opacity="0"/>
</radialGradient>
<radialGradient id="paint23_radial_63_2382" cx="0" cy="0" r="1" gradientUnits="userSpaceOnUse" gradientTransform="translate(5.91145 23.96) scale(27.6233 16.4249)">
<stop offset="0.9647" stop-color="#8EA5A8" stop-opacity="0"/>
<stop offset="1" stop-color="#8EA5A8"/>
</radialGradient>
<radialGradient id="paint24_radial_63_2382" cx="0" cy="0" r="1" gradientUnits="userSpaceOnUse" gradientTransform="translate(22.5258 23.96) rotate(180) scale(27.6233 16.4248)">
<stop offset="0.9647" stop-color="#8EA5A8" stop-opacity="0"/>
<stop offset="1" stop-color="#8EA5A8"/>
</radialGradient>
<clipPath id="clip0_63_2382">
<rect width="29" height="29" fill="white"/>
</clipPath>
</defs>
</svg>
