<svg width="87" height="87" viewBox="0 0 87 87" fill="none" xmlns="http://www.w3.org/2000/svg">
<rect x="0.5" y="0.5" width="86" height="86" rx="20.5" fill="url(#paint0_linear_180_978)" stroke="url(#paint1_linear_180_978)"/>
<path d="M59.8443 35.7795C57.6888 27.9805 51.3411 22.0132 43.5183 22C43.5095 22 43.5011 22 43.4924 22C35.646 22 29.3185 27.9813 27.1568 35.7251C27.1548 35.732 27.1538 35.7392 27.1521 35.7461C27.0455 36.155 27.1449 36.6167 27.4298 36.9412L33.6945 47.1953H36.647L29.9525 36.2374C32.1512 34.1188 35.2798 34.3124 37.2872 36.6665L39.4408 47.1953H42.0125L39.8166 36.4597C41.9251 34.2036 45.0746 34.2015 47.1851 36.46L44.9955 47.1953H47.5668L49.7144 36.6663C51.7159 34.3193 54.8528 34.1085 57.0618 36.25L50.3544 47.1953H53.3094L59.6309 36.8798C59.8644 36.574 59.952 36.1688 59.8443 35.7795Z" fill="white"/>
<path fill-rule="evenodd" clip-rule="evenodd" d="M35.9414 65C35.2457 65 34.6816 64.436 34.6816 63.7402V49.7148H52.3184V63.7402C52.3184 64.436 51.7543 65 51.0586 65H35.9414ZM47.1667 56.5833V58.7812C47.7141 59.2341 48.0833 59.5717 48.0833 60.25C48.0833 60.7362 47.8902 61.2025 47.5464 61.5464C47.2025 61.8902 46.7362 62.0833 46.25 62.0833H40.75C40.2638 62.0833 39.7975 61.8902 39.4536 61.5464C39.1098 61.2025 38.9167 60.7362 38.9167 60.25C38.9167 59.5717 39.2859 59.2341 39.8333 58.7812V56.5833C39.8333 55.6109 40.2196 54.6782 40.9073 53.9906C41.5949 53.303 42.5275 52.9167 43.5 52.9167C44.4725 52.9167 45.4051 53.303 46.0927 53.9906C46.7804 54.6782 47.1667 55.6109 47.1667 56.5833ZM41.412 57.8811C41.4874 57.9315 41.576 57.9583 41.6667 57.9583C41.7882 57.9583 41.9048 57.91 41.9908 57.8241C42.0767 57.7381 42.125 57.6216 42.125 57.5C42.125 57.4093 42.0981 57.3207 42.0478 57.2454C41.9974 57.17 41.9258 57.1112 41.8421 57.0766C41.7583 57.0419 41.6662 57.0328 41.5773 57.0505C41.4883 57.0682 41.4067 57.1118 41.3426 57.1759C41.2785 57.24 41.2348 57.3217 41.2171 57.4106C41.1995 57.4995 41.2085 57.5916 41.2432 57.6754C41.2779 57.7591 41.3367 57.8307 41.412 57.8811ZM45.0787 57.8811C45.1541 57.9315 45.2427 57.9583 45.3333 57.9583C45.4549 57.9583 45.5715 57.91 45.6574 57.8241C45.7434 57.7381 45.7917 57.6216 45.7917 57.5C45.7917 57.4093 45.7648 57.3207 45.7144 57.2454C45.6641 57.17 45.5925 57.1112 45.5087 57.0766C45.425 57.0419 45.3328 57.0328 45.2439 57.0505C45.155 57.0682 45.0733 57.1118 45.0092 57.1759C44.9451 57.24 44.9015 57.3217 44.8838 57.4106C44.8661 57.4995 44.8752 57.5916 44.9099 57.6754C44.9446 57.7591 45.0033 57.8307 45.0787 57.8811ZM44.3985 55.0103C44.6809 54.8408 45.0039 54.7508 45.3333 54.75C45.5341 54.7523 45.7331 54.788 45.9222 54.8554C45.6477 54.4686 45.2845 54.1531 44.8631 53.9354C44.4417 53.7178 43.9743 53.6042 43.5 53.6042C43.0257 53.6042 42.5583 53.7178 42.1369 53.9354C41.7155 54.1531 41.3523 54.4686 41.0778 54.8554C41.4853 54.7091 41.9319 54.7153 42.3351 54.8729C42.7383 55.0306 43.0707 55.329 43.2708 55.7129V58.4731C43.2488 58.4814 43.2274 58.4911 43.2067 58.5023L42.2427 59.1213C42.2066 59.1437 42.1769 59.1749 42.1563 59.212C42.1356 59.2491 42.1248 59.2909 42.1248 59.3333C42.1248 59.3758 42.1356 59.4175 42.1563 59.4546C42.1769 59.4917 42.2066 59.523 42.2427 59.5454L43.2063 60.1642C43.294 60.2201 43.3958 60.2497 43.4998 60.2497C43.6038 60.2497 43.7056 60.2201 43.7933 60.1642L44.757 59.5454C44.793 59.523 44.8228 59.4917 44.8434 59.4546C44.864 59.4175 44.8748 59.3758 44.8748 59.3333C44.8748 59.2909 44.864 59.2491 44.8434 59.212C44.8228 59.1749 44.793 59.1437 44.757 59.1213L43.7933 58.5023C43.7726 58.4911 43.7512 58.4814 43.7292 58.4731V55.7129C43.8848 55.4226 44.1161 55.1798 44.3985 55.0103Z" fill="white"/>
<defs>
<linearGradient id="paint0_linear_180_978" x1="43.5" y1="1" x2="43.5" y2="86" gradientUnits="userSpaceOnUse">
<stop stop-color="#F4FAFA"/>
<stop offset="0.317708" stop-color="#9EBDFB"/>
<stop offset="0.668158" stop-color="#3C9CF6"/>
<stop offset="1" stop-color="#25C3E1"/>
</linearGradient>
<linearGradient id="paint1_linear_180_978" x1="43.5" y1="1" x2="43.5" y2="86" gradientUnits="userSpaceOnUse">
<stop stop-color="#3170F7"/>
<stop offset="1" stop-color="#26C1E2"/>
</linearGradient>
</defs>
</svg>
