<svg width="87" height="87" viewBox="0 0 87 87" fill="none" xmlns="http://www.w3.org/2000/svg">
<rect x="0.5" y="0.5" width="86" height="86" rx="20.5" fill="url(#paint0_linear_180_934)" stroke="url(#paint1_linear_180_934)"/>
<path d="M40.5185 56.2199L38.5517 62.4473C38.493 62.6337 38.3206 62.7604 38.1248 62.7604H30.0623C29.9199 62.7604 29.7855 62.6923 29.7009 62.5772C29.6162 62.4621 29.592 62.3138 29.6355 62.1777L32.813 52.1157C32.9209 52.3674 33.0195 52.6496 33.1167 52.9286C33.4459 53.8755 33.819 54.9483 34.7632 55.4948C35.6944 56.0336 36.8021 55.8235 37.7781 55.6394C38.3949 55.5225 39.0323 55.4025 39.4413 55.5118C39.7535 55.5946 40.1346 55.8934 40.5185 56.2199ZM54.1867 52.1152C54.0787 52.367 53.9797 52.6496 53.8825 52.9291C53.5533 53.8755 53.1802 54.9487 52.2364 55.4948C51.3052 56.0336 50.1975 55.8244 49.2215 55.6394C48.6038 55.5225 47.9665 55.4034 47.5584 55.5113C47.2462 55.5951 46.865 55.8934 46.4812 56.2199L48.4475 62.4473C48.5066 62.6337 48.6791 62.7604 48.8748 62.7604H56.9373C57.0798 62.7604 57.2141 62.6923 57.2988 62.5772C57.3835 62.4621 57.4076 62.3138 57.3642 62.1777L54.1867 52.1152ZM52.9061 40.3646C52.9061 45.551 48.6863 49.7708 43.4998 49.7708C38.3134 49.7708 34.0936 45.551 34.0936 40.3646C34.0936 35.1782 38.3134 30.9583 43.4998 30.9583C48.6863 30.9583 52.9061 35.1782 52.9061 40.3646ZM49.2995 38.5057C49.2462 38.3467 49.1082 38.2307 48.9425 38.2052L45.4644 37.6735L43.9052 34.3513C43.8313 34.1945 43.6736 34.0937 43.4998 34.0937C43.326 34.0937 43.1684 34.1945 43.0945 34.3513L41.5353 37.6735L38.0572 38.2052C37.8915 38.2307 37.7535 38.3463 37.7002 38.5057C37.6469 38.6652 37.6872 38.8403 37.8041 38.9608L40.321 41.5404L39.4798 45.1913C39.4408 45.3611 39.504 45.538 39.641 45.6455C39.7781 45.7526 39.9658 45.7705 40.1203 45.6908L43.4998 43.9587L46.8789 45.6899C46.943 45.7235 47.0137 45.7396 47.0832 45.7396C47.1813 45.7396 47.2785 45.7078 47.3582 45.6451C47.4957 45.538 47.5584 45.3606 47.5194 45.1909L46.6782 41.5399L49.1951 38.9604C49.3129 38.8403 49.3528 38.6647 49.2995 38.5057ZM56.9154 43.9618C56.7008 44.7636 56.8598 45.6052 57.0139 46.4195C57.1407 47.0892 57.2845 47.8488 57.0789 48.204C56.8661 48.5713 56.1275 48.8289 55.4753 49.0551C54.7004 49.3247 53.8982 49.6033 53.3195 50.182C52.739 50.763 52.4604 51.5647 52.1908 52.3401C51.9637 52.9922 51.707 53.7304 51.3402 53.9432C51.2954 53.9687 51.1614 54.0462 50.8134 54.0462C50.4439 54.0462 49.9924 53.9611 49.5557 53.8782C49.0549 53.7833 48.4883 53.6762 47.9436 53.6762C47.6354 53.6762 47.3591 53.7098 47.1002 53.7783C46.3222 53.9871 45.6888 54.5344 45.0761 55.0643C44.5202 55.5454 43.9464 56.0417 43.4998 56.0417C43.0524 56.0417 42.4786 55.5454 41.9232 55.0643C41.3104 54.5344 40.6766 53.9866 39.9022 53.7801C39.6424 53.7107 39.3642 53.6771 39.0534 53.6771C38.5105 53.6771 37.9439 53.7842 37.444 53.8791C37.005 53.962 36.5535 54.0471 36.1845 54.0471C35.8378 54.0471 35.7034 53.9692 35.6595 53.9441C35.2918 53.7309 35.0342 52.9922 34.808 52.3401C34.5384 51.5652 34.2598 50.763 33.6811 50.1843C33.1001 49.6038 32.2983 49.3252 31.523 49.0555C30.8708 48.8284 30.1327 48.5718 29.9199 48.2049C29.7148 47.8497 29.8581 47.0909 29.9848 46.4209C30.1394 45.6021 30.2975 44.7627 30.0838 43.9622C29.8765 43.1878 29.3286 42.554 28.7992 41.9417C28.319 41.3849 27.8228 40.8112 27.8228 40.3646C27.8228 39.9171 28.319 39.3433 28.8001 38.7879C29.33 38.1752 29.8778 37.5414 30.0843 36.7669C30.2988 35.9651 30.1398 35.1235 29.9857 34.3092C29.859 33.6396 29.7152 32.8799 29.9208 32.5247C30.1336 32.1574 30.8722 31.8999 31.5243 31.6737C32.2992 31.404 33.1014 31.1254 33.6802 30.5467C34.2607 29.9657 34.5393 29.164 34.8089 28.3886C35.036 27.7365 35.2927 26.9983 35.6595 26.7855C35.7043 26.76 35.8387 26.6821 36.1867 26.6821C36.5571 26.6821 37.0077 26.7676 37.4436 26.8505C37.9434 26.945 38.5087 27.0521 39.0561 27.0521C39.3633 27.0521 39.6374 27.0194 39.8954 26.9513C40.6775 26.7416 41.3109 26.1943 41.9232 25.6644C42.4795 25.1838 43.0533 24.6875 43.4998 24.6875C43.9473 24.6875 44.5211 25.1838 45.0765 25.6649C45.6892 26.1947 46.3231 26.7425 47.0975 26.949C47.3568 27.018 47.6341 27.0521 47.945 27.0521C48.4856 27.0521 49.0535 26.945 49.5543 26.8505C49.9928 26.7672 50.4452 26.6821 50.8143 26.6821C51.161 26.6821 51.2958 26.76 51.3397 26.7851C51.7075 26.9983 51.965 27.7369 52.1912 28.3891C52.4608 29.164 52.7395 29.9662 53.3182 30.5449C53.8991 31.1254 54.7009 31.404 55.4762 31.6737C56.1284 31.9007 56.8666 32.1574 57.0793 32.5242C57.2845 32.8794 57.1411 33.6382 57.0144 34.3083C56.8598 35.1271 56.7017 35.9665 56.9154 36.7669C57.1228 37.5414 57.6706 38.1752 58.2 38.7875C58.6806 39.3442 59.1769 39.918 59.1769 40.3646C59.1769 40.812 58.6806 41.3858 58.1996 41.9412C57.6701 42.554 57.1219 43.1878 56.9154 43.9618ZM54.6977 40.3646C54.6977 34.1901 49.6744 29.1667 43.4998 29.1667C37.3253 29.1667 32.3019 34.1901 32.3019 40.3646C32.3019 46.5391 37.3253 51.5625 43.4998 51.5625C49.6744 51.5625 54.6977 46.5391 54.6977 40.3646Z" fill="white"/>
<defs>
<linearGradient id="paint0_linear_180_934" x1="43.5" y1="1" x2="43.5" y2="86" gradientUnits="userSpaceOnUse">
<stop stop-color="#F4FAFA"/>
<stop offset="0.317708" stop-color="#9EBDFB"/>
<stop offset="0.668158" stop-color="#3C9CF6"/>
<stop offset="1" stop-color="#25C3E1"/>
</linearGradient>
<linearGradient id="paint1_linear_180_934" x1="43.5" y1="1" x2="43.5" y2="86" gradientUnits="userSpaceOnUse">
<stop stop-color="#3170F7"/>
<stop offset="1" stop-color="#26C1E2"/>
</linearGradient>
</defs>
</svg>
