<svg width="87" height="87" viewBox="0 0 87 87" fill="none" xmlns="http://www.w3.org/2000/svg">
<rect x="0.5" y="0.5" width="86" height="86" rx="20.5" fill="url(#paint0_linear_180_907)" stroke="url(#paint1_linear_180_907)"/>
<path d="M57.8335 48.5083V39.9167C57.8335 36.1153 56.3234 32.4695 53.6354 29.7815C50.9473 27.0935 47.3016 25.5834 43.5002 25.5834C39.6987 25.5834 36.053 27.0935 33.365 29.7815C30.6769 32.4695 29.1668 36.1153 29.1668 39.9167V48.5083C27.0267 50.2788 25.5835 51.5984 25.5835 54.25C25.5835 56.1508 26.3386 57.9736 27.6826 59.3176C29.0266 60.6617 30.8494 61.4167 32.7502 61.4167H54.2502C56.1509 61.4167 57.9738 60.6617 59.3178 59.3176C60.6618 57.9736 61.4168 56.1508 61.4168 54.25C61.4168 51.5984 59.9736 50.2788 57.8335 48.5083ZM36.3335 45.2917C35.9791 45.2917 35.6327 45.1866 35.3381 44.9898C35.0435 44.7929 34.8138 44.5131 34.6782 44.1857C34.5426 43.8583 34.5071 43.4981 34.5763 43.1505C34.6454 42.803 34.816 42.4837 35.0666 42.2331C35.3172 41.9826 35.6364 41.8119 35.984 41.7428C36.3315 41.6737 36.6918 41.7092 37.0191 41.8448C37.3465 41.9804 37.6263 42.21 37.8232 42.5046C38.0201 42.7993 38.1252 43.1457 38.1252 43.5C38.1252 43.9752 37.9364 44.4309 37.6004 44.7669C37.2644 45.1029 36.8087 45.2917 36.3335 45.2917ZM50.6668 45.2917C50.3125 45.2917 49.9661 45.1866 49.6714 44.9898C49.3768 44.7929 49.1472 44.5131 49.0115 44.1857C48.8759 43.8583 48.8405 43.4981 48.9096 43.1505C48.9787 42.803 49.1494 42.4837 49.3999 42.2331C49.6505 41.9826 49.9697 41.8119 50.3173 41.7428C50.6648 41.6737 51.0251 41.7092 51.3525 41.8448C51.6799 41.9804 51.9597 42.21 52.1565 42.5046C52.3534 42.7993 52.4585 43.1457 52.4585 43.5C52.4585 43.9752 52.2697 44.4309 51.9337 44.7669C51.5977 45.1029 51.142 45.2917 50.6668 45.2917ZM50.6668 32.75C49.3792 32.7533 48.1165 33.105 47.0125 33.7676C45.9085 34.4303 45.0044 35.3794 44.396 36.5142V47.3041C44.4821 47.3363 44.5659 47.3744 44.6468 47.4181L48.4138 49.8377C48.5547 49.9253 48.671 50.0475 48.7516 50.1925C48.8322 50.3376 48.8745 50.5008 48.8745 50.6667C48.8745 50.8326 48.8322 50.9959 48.7516 51.1409C48.671 51.286 48.5547 51.4081 48.4138 51.4957L44.6468 53.9145C44.304 54.133 43.906 54.2491 43.4994 54.2491C43.0929 54.2491 42.6949 54.133 42.3521 53.9145L38.5851 51.4957C38.4442 51.4081 38.3279 51.286 38.2473 51.1409C38.1667 50.9959 38.1244 50.8326 38.1244 50.6667C38.1244 50.5008 38.1667 50.3376 38.2473 50.1925C38.3279 50.0475 38.4442 49.9253 38.5851 49.8377L42.3535 47.4181C42.4344 47.3744 42.5182 47.3363 42.6043 47.3041V36.5142C41.8221 35.0134 40.5227 33.8469 38.9466 33.2307C37.3705 32.6144 35.6244 32.59 34.0317 33.1621C35.1047 31.65 36.5243 30.4169 38.1716 29.5659C39.8189 28.7149 41.646 28.2708 43.5002 28.2708C45.3543 28.2708 47.1815 28.7149 48.8288 29.5659C50.4761 30.4169 51.8956 31.65 52.9686 33.1621C52.2294 32.8985 51.4516 32.7592 50.6668 32.75Z" fill="white"/>
<defs>
<linearGradient id="paint0_linear_180_907" x1="43.5" y1="1" x2="43.5" y2="86" gradientUnits="userSpaceOnUse">
<stop stop-color="#F4FAFA"/>
<stop offset="0.317708" stop-color="#9EBDFB"/>
<stop offset="0.668158" stop-color="#3C9CF6"/>
<stop offset="1" stop-color="#25C3E1"/>
</linearGradient>
<linearGradient id="paint1_linear_180_907" x1="43.5" y1="1" x2="43.5" y2="86" gradientUnits="userSpaceOnUse">
<stop stop-color="#3170F7"/>
<stop offset="1" stop-color="#26C1E2"/>
</linearGradient>
</defs>
</svg>
