    <svg width="87" height="87" viewBox="0 0 87 87" fill="none" xmlns="http://www.w3.org/2000/svg">
<rect x="0.5" y="0.5" width="86" height="86" rx="20.5" fill="url(#paint0_linear_180_918)" stroke="url(#paint1_linear_180_918)"/>
<g clip-path="url(#clip0_180_918)">
<path fill-rule="evenodd" clip-rule="evenodd" d="M36.8571 39.2327H56.7857C58.1143 39.2327 59 40.0916 59 41.38V62.8527C59 63.9264 58.1143 65 56.7857 65H30.2143C29.1071 65 28 63.9264 28 62.8527V41.38C28 40.0916 29.1071 39.2327 30.2143 39.2327H32.4286V33.2203C32.4286 27.6374 36.6357 22.6987 42.3929 22.0545C49.0357 21.4103 54.5714 26.5638 54.5714 32.7909C54.5714 34.0793 53.4643 34.9382 52.3571 34.9382C51.25 34.9382 50.1429 34.0793 50.1429 32.7909C50.1429 28.7111 46.3786 25.7049 42.1714 26.3491C39.0714 26.9933 36.8571 29.7847 36.8571 33.0056V39.2327ZM49.8333 50.9167V54.7129C50.779 55.4953 51.4167 56.0783 51.4167 57.25C51.4167 58.0899 51.083 58.8953 50.4892 59.4892C49.8953 60.083 49.0899 60.4167 48.25 60.4167H38.75C37.9101 60.4167 37.1047 60.083 36.5108 59.4892C35.917 58.8953 35.5833 58.0899 35.5833 57.25C35.5833 56.0783 36.221 55.4953 37.1667 54.7129V50.9167C37.1667 49.237 37.8339 47.6261 39.0217 46.4383C40.2094 45.2506 41.8203 44.5833 43.5 44.5833C45.1797 44.5833 46.7906 45.2506 47.9783 46.4383C49.1661 47.6261 49.8333 49.237 49.8333 50.9167ZM39.8935 53.1582C40.0237 53.2452 40.1768 53.2917 40.3333 53.2917C40.5433 53.2917 40.7447 53.2083 40.8931 53.0598C41.0416 52.9113 41.125 52.71 41.125 52.5C41.125 52.3434 41.0786 52.1904 40.9916 52.0602C40.9046 51.93 40.7809 51.8285 40.6363 51.7686C40.4916 51.7087 40.3325 51.693 40.1789 51.7235C40.0253 51.7541 39.8843 51.8295 39.7735 51.9402C39.6628 52.0509 39.5874 52.192 39.5569 52.3456C39.5263 52.4991 39.542 52.6583 39.6019 52.803C39.6618 52.9476 39.7633 53.0713 39.8935 53.1582ZM46.2268 53.1582C46.357 53.2452 46.5101 53.2917 46.6667 53.2917C46.8766 53.2917 47.078 53.2083 47.2265 53.0598C47.3749 52.9113 47.4583 52.71 47.4583 52.5C47.4583 52.3434 47.4119 52.1904 47.3249 52.0602C47.2379 51.93 47.1143 51.8285 46.9696 51.7686C46.825 51.7087 46.6658 51.693 46.5122 51.7235C46.3587 51.7541 46.2176 51.8295 46.1069 51.9402C45.9962 52.0509 45.9208 52.192 45.8902 52.3456C45.8597 52.4991 45.8753 52.6583 45.9353 52.803C45.9952 52.9476 46.0967 53.0713 46.2268 53.1582ZM45.052 48.1996C45.5398 47.9068 46.0977 47.7515 46.6667 47.75C47.0134 47.7541 47.3571 47.8156 47.6837 47.9321C47.2096 47.2639 46.5824 46.7191 45.8545 46.343C45.1266 45.967 44.3193 45.7708 43.5 45.7708C42.6807 45.7708 41.8734 45.967 41.1455 46.343C40.4176 46.7191 39.7904 47.2639 39.3163 47.9321C40.02 47.6793 40.7915 47.6901 41.488 47.9624C42.1844 48.2347 42.7586 48.7501 43.1042 49.4132V54.1809C43.0661 54.1951 43.0291 54.2119 42.9933 54.2312L41.3282 55.3004C41.266 55.3391 41.2146 55.393 41.179 55.4571C41.1434 55.5212 41.1247 55.5933 41.1247 55.6667C41.1247 55.74 41.1434 55.8121 41.179 55.8762C41.2146 55.9403 41.266 55.9942 41.3282 56.033L42.9927 57.1017C43.1442 57.1983 43.3201 57.2496 43.4997 57.2496C43.6793 57.2496 43.8552 57.1983 44.0067 57.1017L45.6711 56.033C45.7334 55.9942 45.7848 55.9403 45.8204 55.8762C45.856 55.8121 45.8747 55.74 45.8747 55.6667C45.8747 55.5933 45.856 55.5212 45.8204 55.4571C45.7848 55.393 45.7334 55.3391 45.6711 55.3004L44.0067 54.2312C43.9709 54.2119 43.9339 54.1951 43.8958 54.1809V49.4132C44.1647 48.9118 44.5642 48.4925 45.052 48.1996Z" fill="white"/>
</g>
<defs>
<linearGradient id="paint0_linear_180_918" x1="43.5" y1="1" x2="43.5" y2="86" gradientUnits="userSpaceOnUse">
<stop stop-color="#F4FAFA"/>
<stop offset="0.317708" stop-color="#9EBDFB"/>
<stop offset="0.668158" stop-color="#3C9CF6"/>
<stop offset="1" stop-color="#25C3E1"/>
</linearGradient>
<linearGradient id="paint1_linear_180_918" x1="43.5" y1="1" x2="43.5" y2="86" gradientUnits="userSpaceOnUse">
<stop stop-color="#3170F7"/>
<stop offset="1" stop-color="#26C1E2"/>
</linearGradient>
<clipPath id="clip0_180_918">
<rect width="43" height="43" fill="white" transform="translate(22 22)"/>
</clipPath>
</defs>
</svg>
