<svg width="87" height="87" viewBox="0 0 87 87" fill="none" xmlns="http://www.w3.org/2000/svg">
<rect x="0.5" y="0.5" width="86" height="86" rx="20.5" fill="url(#paint0_linear_180_954)" stroke="url(#paint1_linear_180_954)"/>
<path d="M65.0002 47.9931C65.0002 41.5977 58.8853 37.1054 52.1674 36.6871C51.7122 41.0254 48.9991 44.5604 45.2773 46.7333H47.3635V49.2529H44.8439V46.9794C42.599 48.2098 40.0064 48.9791 37.3584 49.1924C38.1059 55.2561 44.4668 59.331 51.1428 59.331C52.358 59.331 53.6018 59.1748 54.9338 58.8556L63.1072 62.9423L61.2956 55.697C63.6917 53.5949 65.0002 50.8872 65.0002 47.9931ZM52.4025 49.2529H49.883V46.7333H52.4025V49.2529ZM57.4416 49.2529H54.9221V46.7333H57.4416V49.2529Z" fill="white"/>
<path fill-rule="evenodd" clip-rule="evenodd" d="M22 35.3955C22 28.6759 28.7498 24.0576 35.8574 24.0576C43.117 24.0576 49.7148 28.7969 49.7148 35.3955C49.7148 42.1151 42.965 46.7334 35.8574 46.7334C34.6422 46.7334 33.3984 46.5772 32.0664 46.258L23.893 50.3447L25.7046 43.0994C23.3085 40.9973 22 38.2896 22 35.3955ZM41.3333 33.6667V36.8635C42.1297 37.5223 42.6667 38.0133 42.6667 39C42.6667 39.7072 42.3857 40.3855 41.8856 40.8856C41.3855 41.3857 40.7072 41.6667 40 41.6667H32C31.2928 41.6667 30.6145 41.3857 30.1144 40.8856C29.6143 40.3855 29.3333 39.7072 29.3333 39C29.3333 38.0133 29.8703 37.5223 30.6667 36.8635V33.6667C30.6667 32.2522 31.2286 30.8956 32.2288 29.8954C33.229 28.8952 34.5855 28.3333 36 28.3333C37.4145 28.3333 38.771 28.8952 39.7712 29.8954C40.7714 30.8956 41.3333 32.2522 41.3333 33.6667ZM32.963 35.5543C33.0726 35.6276 33.2015 35.6667 33.3333 35.6667C33.5101 35.6667 33.6797 35.5964 33.8047 35.4714C33.9298 35.3464 34 35.1768 34 35C34 34.8681 33.9609 34.7393 33.8876 34.6296C33.8144 34.52 33.7103 34.4345 33.5885 34.3841C33.4666 34.3336 33.3326 34.3204 33.2033 34.3461C33.074 34.3719 32.9552 34.4354 32.8619 34.5286C32.7687 34.6218 32.7052 34.7406 32.6795 34.8699C32.6538 34.9993 32.667 35.1333 32.7174 35.2551C32.7679 35.3769 32.8533 35.4811 32.963 35.5543ZM38.2963 35.5543C38.4059 35.6276 38.5348 35.6667 38.6667 35.6667C38.8435 35.6667 39.013 35.5964 39.1381 35.4714C39.2631 35.3464 39.3333 35.1768 39.3333 35C39.3333 34.8681 39.2942 34.7393 39.221 34.6296C39.1477 34.52 39.0436 34.4345 38.9218 34.3841C38.8 34.3336 38.6659 34.3204 38.5366 34.3461C38.4073 34.3719 38.2885 34.4354 38.1953 34.5286C38.102 34.6218 38.0385 34.7406 38.0128 34.8699C37.9871 34.9993 38.0003 35.1333 38.0507 35.2551C38.1012 35.3769 38.1867 35.4811 38.2963 35.5543ZM37.3069 31.3786C37.7177 31.1321 38.1876 31.0012 38.6667 31C38.9587 31.0034 39.2481 31.0552 39.5231 31.1533C39.1239 30.5907 38.5957 30.1318 37.9827 29.8152C37.3698 29.4986 36.6899 29.3333 36 29.3333C35.3101 29.3333 34.6302 29.4986 34.0173 29.8152C33.4043 30.1318 32.8761 30.5907 32.4769 31.1533C33.0695 30.9405 33.7192 30.9495 34.3056 31.1788C34.8921 31.4082 35.3756 31.8422 35.6667 32.4006V36.4155C35.6346 36.4275 35.6034 36.4416 35.5733 36.4579L34.1711 37.3582C34.1187 37.3908 34.0754 37.4362 34.0455 37.4902C34.0155 37.5442 33.9997 37.6049 33.9997 37.6667C33.9997 37.7284 34.0155 37.7891 34.0455 37.8431C34.0754 37.8971 34.1187 37.9425 34.1711 37.9751L35.5728 38.8751C35.7004 38.9564 35.8485 38.9996 35.9997 38.9996C36.151 38.9996 36.2991 38.9564 36.4267 38.8751L37.8283 37.9751C37.8808 37.9425 37.924 37.8971 37.954 37.8431C37.984 37.7891 37.9997 37.7284 37.9997 37.6667C37.9997 37.6049 37.984 37.5442 37.954 37.4902C37.924 37.4362 37.8808 37.3908 37.8283 37.3582L36.4267 36.4579C36.3966 36.4416 36.3654 36.4275 36.3333 36.4155V32.4006C36.5597 31.9784 36.8961 31.6252 37.3069 31.3786Z" fill="white"/>
<defs>
<linearGradient id="paint0_linear_180_954" x1="43.5" y1="1" x2="43.5" y2="86" gradientUnits="userSpaceOnUse">
<stop stop-color="#F4FAFA"/>
<stop offset="0.317708" stop-color="#9EBDFB"/>
<stop offset="0.668158" stop-color="#3C9CF6"/>
<stop offset="1" stop-color="#25C3E1"/>
</linearGradient>
<linearGradient id="paint1_linear_180_954" x1="43.5" y1="1" x2="43.5" y2="86" gradientUnits="userSpaceOnUse">
<stop stop-color="#3170F7"/>
<stop offset="1" stop-color="#26C1E2"/>
</linearGradient>
</defs>
</svg>
