<svg width="87" height="87" viewBox="0 0 87 87" fill="none" xmlns="http://www.w3.org/2000/svg">
<rect x="0.5" y="0.5" width="86" height="86" rx="20.5" fill="url(#paint0_linear_180_894)" stroke="url(#paint1_linear_180_894)"/>
<path d="M59.692 27.3975H58.0739V58.3429C58.0739 60.4268 56.3785 62.1222 54.2946 62.1222H31.4453V63.7403C31.4453 64.436 32.0094 65 32.7051 65H59.692C60.3877 65 60.9518 64.436 60.9518 63.7403V28.6572C60.9518 27.9614 60.3877 27.3975 59.692 27.3975Z" fill="white"/>
<path d="M55.5543 58.3428V23.2598C55.5543 22.564 54.9903 22 54.2946 22H27.3076C26.6119 22 26.0479 22.564 26.0479 23.2598V58.3428C26.0479 59.0385 26.6119 59.6026 27.3076 59.6026H54.2946C54.9903 59.6026 55.5543 59.0386 55.5543 58.3428ZM37.6438 51.1375L34.9452 53.8362C34.476 54.3241 33.6326 54.3242 33.1636 53.8362L31.8143 52.4868C30.6779 51.2634 32.3718 49.5685 33.5959 50.7053L34.0544 51.1638L35.8623 49.356C37.0862 48.2192 38.7804 49.9141 37.6438 51.1375ZM37.6438 43.7161L34.9452 46.4148C34.476 46.9027 33.6326 46.9028 33.1636 46.4148L31.8143 45.0654C30.6779 43.842 32.3718 42.1471 33.5959 43.2838L34.0544 43.7424L35.8623 41.9345C37.0862 40.7978 38.7804 42.4927 37.6438 43.7161ZM37.6438 36.2947L34.9452 38.9934C34.476 39.4813 33.6326 39.4814 33.1636 38.9934L31.8143 37.644C30.6779 36.4206 32.3718 34.7257 33.5959 35.8625L34.0544 36.321L35.8623 34.5132C37.0862 33.3764 38.7804 35.0712 37.6438 36.2947ZM37.6438 28.8733L34.9452 31.572C34.476 32.0599 33.6326 32.06 33.1636 31.572L31.8143 30.2226C30.6779 28.9992 32.3718 27.3043 33.5959 28.441L34.0544 28.8996L35.8623 27.0917C37.0862 25.9549 38.7804 27.6498 37.6438 28.8733ZM48.8972 53.5305H42.1505C40.4831 53.4696 40.4801 51.0731 42.1505 51.011H48.8972C49.5929 51.011 50.157 51.575 50.157 52.2707C50.157 52.9665 49.5929 53.5305 48.8972 53.5305ZM48.8972 46.1091H42.1505C40.4831 46.0483 40.4801 43.6518 42.1505 43.5896H48.8972C49.5929 43.5896 50.157 44.1536 50.157 44.8494C50.157 45.5451 49.5929 46.1091 48.8972 46.1091ZM48.8972 38.6877H42.1505C40.4831 38.6268 40.4801 36.2303 42.1505 36.1682H48.8972C49.5929 36.1682 50.157 36.7322 50.157 37.4279C50.157 38.1237 49.5929 38.6877 48.8972 38.6877ZM48.8972 31.2662H42.1505C40.4831 31.2054 40.4801 28.8089 42.1505 28.7467H48.8972C49.5929 28.7467 50.157 29.3108 50.157 30.0065C50.157 30.7022 49.5929 31.2662 48.8972 31.2662Z" fill="white"/>
<defs>
<linearGradient id="paint0_linear_180_894" x1="43.5" y1="1" x2="43.5" y2="86" gradientUnits="userSpaceOnUse">
<stop stop-color="#F4FAFA"/>
<stop offset="0.317708" stop-color="#9EBDFB"/>
<stop offset="0.668158" stop-color="#3C9CF6"/>
<stop offset="1" stop-color="#25C3E1"/>
</linearGradient>
<linearGradient id="paint1_linear_180_894" x1="43.5" y1="1" x2="43.5" y2="86" gradientUnits="userSpaceOnUse">
<stop stop-color="#3170F7"/>
<stop offset="1" stop-color="#26C1E2"/>
</linearGradient>
</defs>
</svg>
