<svg width="161" height="36" viewBox="0 0 161 36" fill="none" xmlns="http://www.w3.org/2000/svg">
<path d="M152.207 0H8.79301C3.93676 0 0 3.96663 0 8.85972V27.1403C0 32.0334 3.93676 36 8.79301 36H152.207C157.063 36 161 32.0334 161 27.1403V8.85972C161 3.96663 157.063 0 152.207 0Z" fill="white"/>
<path d="M11.5483 26.1362V9.8934H20.2974C21.5079 9.83969 22.7123 10.0936 23.7999 10.6317C24.6751 11.1067 25.3896 11.8343 25.8516 12.7211C26.3096 13.6363 26.5409 14.6496 26.5258 15.6744C26.5448 16.7115 26.2785 17.7336 25.7564 18.6276C25.2304 19.4959 24.4672 20.1931 23.5581 20.6358C22.5027 21.1459 21.3431 21.3988 20.1728 21.3741H15.9888V26.1362H11.5483ZM15.9888 18.2289H19.1909C19.5738 18.2545 19.9579 18.2024 20.3204 18.0755C20.683 17.9487 21.0165 17.7498 21.3013 17.4906C21.5434 17.2461 21.7333 16.9542 21.8593 16.633C21.9853 16.3117 22.0448 15.9679 22.034 15.6227C22.0769 14.9077 21.8432 14.2038 21.3819 13.6588C21.1102 13.4093 20.7904 13.2189 20.4424 13.0995C20.0945 12.9801 19.7258 12.9342 19.3595 12.9648H15.9888V18.2289Z" fill="#216D92"/>
<path d="M28.2622 26.1361V9.89331H44.2069V12.9942H32.7027V16.4052H40.3453V19.5873H32.7027V22.9983H41.3638V26.1361H28.2622Z" fill="#216D92"/>
<path d="M43.4888 26.1361V9.8933H47.2917L54.8464 19.5873V9.86377H59.3528V26.1066H55.4839L47.9292 16.4347V26.1361H43.4888Z" fill="#216D92"/>
<path d="M70.9818 26.3873C67.914 26.3873 65.579 25.676 63.9767 24.2535C62.3744 22.8311 61.5659 20.8229 61.5513 18.2289C61.5513 15.5119 62.3646 13.4004 64.006 11.8868C65.6473 10.3733 68.0801 9.59808 71.2602 9.59808C72.24 9.59198 73.2192 9.65118 74.1912 9.77528C75.0342 9.88666 75.8672 10.0644 76.6826 10.3069V13.8065C75.884 13.532 75.0586 13.3439 74.2205 13.2453C73.3446 13.1471 72.464 13.0978 71.5826 13.0977C69.6677 13.0977 68.2755 13.5136 67.4059 14.3454C66.5364 15.1772 66.0992 16.4718 66.0943 18.2289C66.042 18.8741 66.1253 19.5232 66.3387 20.1338C66.552 20.7445 66.8907 21.3029 67.3327 21.7728C68.3657 22.6092 69.6746 23.0207 70.9964 22.9246C72.0145 22.9369 73.029 22.8001 74.008 22.5185V19.4398H70.1538V16.8852H77.7157V24.9476C76.8931 25.3929 76.0161 25.728 75.1072 25.9443C73.7561 26.2668 72.3699 26.4156 70.9818 26.3873Z" fill="#216D92"/>
<path d="M87.9962 26.3872C86.5244 26.4163 85.0602 26.1658 83.6803 25.6488C82.5431 25.2195 81.5568 24.4619 80.8446 23.4708C80.1585 22.4247 79.8175 21.1871 79.87 19.9343V9.86377H84.2665V19.5652C84.2305 20.0321 84.2987 20.5012 84.4661 20.9382C84.6334 21.3751 84.8957 21.7687 85.2338 22.0902C86.0526 22.6341 87.0118 22.9241 87.9926 22.9241C88.9733 22.9241 89.9326 22.6341 90.7514 22.0902C91.0894 21.7687 91.3517 21.3751 91.5191 20.9382C91.6865 20.5012 91.7546 20.0321 91.7186 19.5652V9.86377H96.1591V19.9343C96.2008 21.1911 95.8469 22.429 95.1479 23.4708C94.4406 24.4623 93.4595 25.2224 92.3268 25.6562C90.9418 26.1725 89.4726 26.4205 87.9962 26.3872Z" fill="#216D92"/>
<path d="M98.8408 26.1362V9.8934H107.583C108.793 9.83969 109.997 10.0936 111.085 10.6317C111.962 11.1045 112.677 11.8327 113.137 12.7211C113.598 13.6351 113.83 14.6492 113.811 15.6744C113.841 16.708 113.587 17.7299 113.078 18.6276C112.554 19.4976 111.79 20.1953 110.88 20.6358C109.827 21.1458 108.67 21.3987 107.502 21.3741H103.318V26.1362H98.8408ZM103.318 18.2289H106.513C106.896 18.2545 107.28 18.2024 107.642 18.0755C108.005 17.9487 108.338 17.7498 108.623 17.4906C108.865 17.2461 109.055 16.9542 109.181 16.633C109.307 16.3117 109.367 15.9679 109.356 15.6227C109.401 14.9087 109.17 14.2049 108.711 13.6588C108.438 13.4094 108.117 13.2192 107.767 13.0998C107.418 12.9805 107.049 12.9345 106.681 12.9648H103.318V18.2289Z" fill="#216D92"/>
<path d="M112.792 26.1361L119.578 9.89331H124.377L131.163 26.1361H126.524L124.927 22.4446H118.999L117.423 26.1361H112.792ZM119.607 19.4397H124.319L121.952 13.7768L119.607 19.4397Z" fill="#216D92"/>
<path d="M133.427 26.1361V9.8933H141.121C142.677 9.84865 144.226 10.1276 145.671 10.7128C146.871 11.2244 147.861 12.1335 148.477 13.2895C149.2 14.7837 149.545 16.4349 149.481 18.0959C149.481 20.8917 148.778 22.9294 147.371 24.2091C145.964 25.4889 143.893 26.1312 141.157 26.1361H133.427ZM137.823 22.9983H140.476C141.297 23.0232 142.115 22.8904 142.887 22.607C143.548 22.3264 144.074 21.7965 144.352 21.1304C144.744 20.162 144.919 19.1183 144.865 18.0738C144.909 17.0157 144.755 15.9587 144.411 14.9581C144.279 14.6163 144.082 14.3041 143.831 14.0393C143.579 13.7745 143.278 13.5624 142.945 13.415C142.145 13.0924 141.286 12.9415 140.425 12.972H137.772L137.823 22.9983Z" fill="#216D92"/>
</svg>
