<svg width="16" height="16" viewBox="0 0 16 16" fill="none" xmlns="http://www.w3.org/2000/svg">
<path d="M3.5251 11.2068C7.00467 12.5264 9.96584 12.7834 13.3214 10.7295C13.2968 10.7654 12.6331 11.7209 10.8876 12.2106C11.2563 12.7004 11.7603 13.2618 11.7603 13.2618C12.879 13.2618 13.973 12.9512 14.9194 12.354C15.657 11.8762 16.0749 11.052 15.9889 10.192C15.8413 8.72277 15.4848 7.28941 14.9317 5.91578C14.2311 4.12408 12.547 2.8818 10.5926 2.70259C10.4204 2.69064 10.2975 2.69064 10.2238 2.69064L10.0271 2.8818C12.2766 3.5029 13.3953 4.4704 13.4198 4.50624C9.96562 2.81011 5.88457 2.78622 2.40582 4.43463C2.40582 4.43463 3.51213 3.37148 5.95827 2.81011L5.8108 2.66675C5.55261 2.66675 5.30679 2.69064 5.04868 2.72648C3.24172 3.02509 1.72976 4.23153 1.07825 5.89181C0.512785 7.32518 0.144024 8.83022 0.00881895 10.3592C-0.0649273 11.1714 0.328424 11.9717 1.0168 12.4376C1.92642 13.0229 3.00812 13.3334 4.10213 13.3334C4.10213 13.3334 4.54467 12.772 4.9872 12.2703C3.32778 11.7925 2.65164 10.837 2.63935 10.8011L2.95167 10.9561C3.13841 11.0488 3.32981 11.1327 3.5251 11.2068ZM5.45433 10.1681C4.65532 10.1442 4.02843 9.48724 4.05302 8.69888C4.07761 7.9583 4.6922 7.36109 5.45433 7.33712C6.25334 7.36109 6.88022 8.01804 6.85564 8.8064C6.81875 9.54698 6.21646 10.1442 5.45433 10.1681ZM10.4696 10.1681C9.67062 10.1442 9.04366 9.48724 9.06825 8.69888C9.09284 7.9583 9.7075 7.36109 10.4696 7.33712C11.2686 7.36109 11.8955 8.01804 11.8709 8.8064C11.8463 9.54698 11.2317 10.1442 10.4696 10.1681Z" fill="#BCCAD2"/>
</svg>
