<svg width="16" height="16" viewBox="0 0 16 16" fill="none" xmlns="http://www.w3.org/2000/svg">
<path d="M15.5554 3.24974C14.9888 3.49824 14.4032 3.67028 13.7799 3.74675C14.4221 3.36448 14.9132 2.75273 15.1399 2.00721C14.5355 2.37046 13.8744 2.61896 13.1755 2.77182C12.6088 2.16015 11.7965 1.77783 10.9088 1.77783C9.18987 1.77783 7.81104 3.19237 7.81104 4.91281C7.81104 5.16132 7.82991 5.39073 7.8866 5.62013C5.31766 5.50539 3.05097 4.24376 1.521 2.35128C0.425449 4.33933 1.65323 5.9833 2.46543 6.53769C1.97432 6.53769 1.48323 6.38475 1.06767 6.15534C1.06767 7.70375 2.14431 8.98448 3.54208 9.27125C3.23991 9.36682 2.55986 9.42419 2.14431 9.32862C2.54099 10.5712 3.69321 11.4887 5.03437 11.5078C3.97658 12.3489 2.42768 13.0179 0.444336 12.8077C1.82322 13.7061 3.44765 14.2223 5.20436 14.2223C10.9088 14.2223 14.0066 9.44329 14.0066 5.31426C14.0066 5.18042 14.0066 5.04665 13.9877 4.91281C14.6299 4.4349 15.1588 3.88059 15.5554 3.24974Z" fill="#BCCAD2"/>
</svg>
