<svg width="55" height="55" viewBox="0 0 55 55" fill="none" xmlns="http://www.w3.org/2000/svg">
<g clip-path="url(#clip0_63_2324)">
<path d="M55 27.5C55 42.687 42.687 55 27.5 55C12.313 55 0 42.687 0 27.5C0 12.313 12.313 0 27.5 0C42.6902 0 55 12.313 55 27.5Z" fill="#1D9BF0"/>
<path d="M42.6925 18.0545C41.5501 18.5495 40.3698 18.8922 39.1133 19.0445C40.4078 18.2831 41.3978 17.0645 41.8548 15.5795C40.6364 16.3031 39.3037 16.7981 37.8948 17.1026C36.7525 15.8842 35.1151 15.1226 33.3255 15.1226C29.8605 15.1226 27.081 17.9402 27.081 21.3672C27.081 21.8622 27.1191 22.3192 27.2333 22.7761C22.0548 22.5476 17.4855 20.0345 14.4013 16.2649C12.1929 20.2249 14.6679 23.4995 16.3051 24.6038C15.3151 24.6038 14.3252 24.2992 13.4875 23.8422C13.4875 26.9265 15.6578 29.4776 18.4755 30.0488C17.8664 30.2392 16.4955 30.3534 15.6578 30.1631C16.4575 32.6381 18.7801 34.4658 21.4837 34.5038C19.3514 36.1792 16.2291 37.5118 12.231 37.0931C15.0106 38.8826 18.2851 39.9108 21.8264 39.9108C33.3255 39.9108 39.5701 30.3915 39.5701 22.1668C39.5701 21.9002 39.5701 21.6338 39.5321 21.3672C40.8267 20.4152 41.8928 19.3111 42.6925 18.0545Z" fill="white"/>
</g>
<defs>
<clipPath id="clip0_63_2324">
<rect width="55" height="55" fill="white"/>
</clipPath>
</defs>
</svg>
